<svg width="580" height="643" viewBox="0 0 580 643" fill="none" xmlns="http://www.w3.org/2000/svg">
<path d="M180.145 510.344C183.881 524.702 175.004 539.992 175.004 539.992C175.004 539.992 160.07 532.003 156.334 517.645C152.598 503.287 161.474 487.996 161.474 487.996C161.474 487.996 176.408 495.985 180.145 510.344Z" fill="#343E48" fill-opacity="0.05"/>
<path d="M151.604 558.937C165.965 555.207 174.996 540.008 174.996 540.008C174.996 540.008 160.745 530.855 146.385 534.585C132.025 538.315 122.993 553.514 122.993 553.514C122.993 553.514 137.244 562.667 151.604 558.937Z" fill="#343E48" fill-opacity="0.05"/>
<path d="M169.855 569.656C166.119 555.298 174.996 540.008 174.996 540.008C174.996 540.008 189.93 547.997 193.666 562.355C197.402 576.713 188.526 592.004 188.526 592.004C188.526 592.004 173.591 584.015 169.855 569.656Z" fill="#343E48" fill-opacity="0.05"/>
<path d="M90.6782 367.747C113.839 345.764 143.434 331.744 171.53 317.232C191.101 307.123 218.46 297.239 224.177 274.716C224.879 268.619 226.823 263.882 226.395 257.526C225.849 249.42 225.333 243.902 220.998 236.808C213.723 224.903 201.39 216.355 196.893 202.716C194.467 195.358 191.558 188.693 192.745 180.749C194.154 171.323 196.648 164.297 203.464 157.648C210.652 150.635 221.735 149.605 231.245 149.566C244.23 149.512 259.195 150.661 271.691 153.978C288.023 158.313 302.286 168.101 318.836 171.558C332.887 174.493 348.122 174.224 362.453 174.431C375.846 174.624 389.962 172.09 403.171 174.349C412.664 175.973 417.476 182.168 423.625 189.241C437.628 205.351 447.06 226.611 449.239 248.052C450.224 257.745 448.088 266.76 444.83 275.875C439.185 291.667 433.242 307.333 427.682 323.134C422.705 337.277 419.652 352.219 416.794 366.892C413.69 382.826 411.636 400.624 412.407 416.868C413.842 447.102 418.794 478.744 409.489 508.375C404.778 523.376 388.552 536.159 374.314 541.749C359.174 547.694 344.542 545.758 329.275 541.199C309.298 535.234 292.438 524.872 275.874 512.539C266.867 505.834 258.251 498.619 249.852 491.171C243.267 485.331 236.907 478.925 229.407 474.244C216.316 466.073 200.581 462.685 185.202 463.179C177.922 463.413 170.67 463.007 163.387 463.268C157.035 463.496 150.596 464.11 144.257 463.431C131.731 462.09 119.532 458.548 106.983 457.254C93.862 455.902 82.5968 447.009 78.1691 434.626C74.0046 422.978 73.2173 412.988 73.3912 400.737C73.4785 394.593 74.9027 387.603 77.5934 382.014C80.231 376.535 86.3347 371.87 90.6782 367.747Z" fill="#B0A7A6" fill-opacity="0.3"/>
<path d="M392.194 231.932C394.36 232.668 396.883 233.107 398.846 234.298C408.607 237.792 405.949 243.037 404.726 244.861C402.724 247.846 397.965 249.56 394.801 250.356C389.982 251.568 384.127 251.218 380 248.026C378.383 246.775 376.999 245.831 375.846 244.034C374.804 242.41 373.367 240.382 373.069 238.413C372.495 234.631 375.603 231.835 378.638 230.814C380.848 230.072 382.896 229.71 385.214 230.279C387.522 230.846 389.945 231.168 392.194 231.932Z" fill="white"/>
<path d="M374.536 561.81C372.643 563.094 370.771 564.842 368.637 565.689C359.963 571.368 357.383 566.085 356.666 564.009C355.492 560.612 356.995 555.782 358.268 552.778C360.208 548.204 364.017 543.744 369.053 542.377C371.026 541.842 372.614 541.307 374.742 541.471C376.667 541.62 379.151 541.696 380.901 542.646C384.264 544.47 384.62 548.635 383.603 551.671C382.863 553.882 381.916 555.734 380.065 557.239C378.22 558.739 376.502 560.477 374.536 561.81Z" fill="#B0A7A6"/>
<path d="M398 266.024C405.32 266.31 412.533 272.555 415.989 278.577C418.026 279.738 418.482 283.889 417.509 290.554C416.939 294.456 410.884 298.581 407.712 300.167C402.817 302.615 395.15 303.298 389.704 302.889C381.711 302.288 373.476 296.141 367.246 291.741C360.958 287.301 358.517 281.148 364.181 275.449C370.398 269.193 378.742 268.354 387.074 266.997C390.712 266.405 394.302 265.88 398 266.024Z" fill="white"/>
<path d="M322.296 558.011C315.937 564.909 303.907 566.791 295.214 565.196C292.4 566.224 288.008 563.247 282.374 556.806C279.076 553.035 280.12 543.735 281.224 539.335C282.925 532.547 288.635 524.512 293.556 519.542C300.778 512.249 313.564 509.29 322.993 506.845C332.51 504.376 340.485 507.069 341.288 517.286C342.169 528.5 336.046 537.323 330.434 546.561C327.984 550.595 325.508 554.526 322.296 558.011Z" fill="#B0A7A6"/>
<path d="M198.396 521.063C184.036 524.793 175.005 539.992 175.005 539.992C175.005 539.992 189.256 549.145 203.615 545.415C217.976 541.685 227.007 526.486 227.007 526.486C227.007 526.486 212.756 517.334 198.396 521.063Z" fill="#343E48" fill-opacity="0.05"/>
<path d="M185.918 282.605C188.177 285.123 190.918 288.244 193.801 291.527C182.456 291.936 170.178 304.436 166.998 315.137C163.696 310.559 161.352 307.266 160.633 306.195C162.356 300.293 165.628 294.967 170.09 290.804C174.552 286.641 180.03 283.804 185.918 282.605V282.605Z" fill="#B0A7A6"/>
<path d="M297.479 393.025C295.267 397.915 293.415 401.893 292.258 404.194C283.757 405.489 267.953 398.338 261.31 387.771C262.407 385.294 264.2 381.199 266.314 376.377C270.154 385.006 286.477 393.994 297.479 393.025Z" fill="#B0A7A6"/>
<path d="M214.23 324.941C213.818 316.987 214.128 308.998 215.156 301.078C217.615 295.456 222.297 284.297 223.32 281.934C224.104 280.036 224.366 277.962 224.077 275.94C228.187 270.174 233.859 265.764 240.37 263.271C241.757 264.232 243.211 265.087 244.723 265.83C226.44 281.013 221.107 311.961 217.482 345.472C202.207 326.913 182.263 303.863 178.345 298.621C182.63 294.626 188.051 292.159 193.779 291.599L203.852 303.077C206.991 309.161 210.753 317.056 214.23 324.941Z" fill="#B0A7A6"/>
<path d="M261.639 310.274C260.206 313.889 243.549 356.056 240.561 362.697C233.281 379.493 218.263 382.11 203.625 364.085C194.43 352.802 176.646 328.532 167.062 315.176C169.3 308.722 173.23 302.999 178.415 298.643C182.373 303.819 202.177 326.825 217.546 345.512C221.148 312.013 226.499 281.071 244.781 265.887C254.724 270.838 268.99 272.542 275.056 267.018C282.886 275.372 292.434 285.463 300.449 294.88C324.72 323.398 323.287 330.641 319.287 341.698C315.597 351.884 304.726 377.322 297.549 393.047C286.547 394.016 270.229 385.01 266.378 376.358C272.764 362.003 281.769 341.268 282.903 338.486L280.412 336.961C273.045 328.95 266.735 319.98 261.639 310.274Z" fill="#B0A7A6"/>
<path d="M328.21 218.851C328.539 219.166 328.776 219.57 328.894 220.017C329.012 220.465 329.006 220.939 328.878 221.388C328.75 221.837 328.505 222.244 328.168 222.563C327.832 222.882 327.418 223.101 326.971 223.196C325.419 223.635 323.801 223.748 322.216 223.529C319.58 223.142 318.536 220.411 322.906 219.347C324.683 219.545 326.486 219.376 328.21 218.851V218.851Z" fill="#B0A7A6"/>
<path d="M329.652 214.469C331.196 215.66 330.423 218.14 328.281 218.872C326.534 219.397 324.708 219.552 322.913 219.329C320.04 219.026 318.639 216.026 323.308 214.741C325.387 215.34 327.608 215.245 329.652 214.469V214.469Z" fill="#B0A7A6"/>
<path d="M329.652 214.469C328.492 214.943 327.253 215.171 326.012 215.14C324.772 215.11 323.554 214.821 322.434 214.291C322.974 213.942 323.382 213.414 323.588 212.797C323.817 212.06 324.109 211.126 324.428 210.101C326.488 210.539 328.621 210.532 330.693 210.082C330.996 210.4 331.215 210.793 331.328 211.224C331.442 211.655 331.447 212.111 331.343 212.548C331.24 212.986 331.03 213.391 330.734 213.727C330.439 214.063 330.066 214.318 329.652 214.469V214.469Z" fill="#B0A7A6"/>
<path d="M331.638 206.433C332.972 207.499 332.159 210.046 329.745 210.299C327.963 210.506 326.166 210.431 324.416 210.078C324.771 208.753 325.037 207.407 325.212 206.048C327.061 205.579 330.451 205.452 331.638 206.433Z" fill="#B0A7A6"/>
<path d="M315.699 239.164C309.163 238.543 302.769 236.936 296.722 234.396C297.102 233.174 297.483 230.907 298.058 228.385C301.069 214.97 302.968 212.624 306.012 209.55C308.786 206.757 311.838 204.271 315.117 202.135C316.777 201.291 321.054 202.249 322.918 202.593C325.097 203.035 325.453 203.797 325.222 206.012C324.92 208.304 324.365 210.559 323.569 212.732C322.92 214.817 319.826 216.515 320.404 207.409C320.234 210.042 319.436 212.603 318.08 214.867C317.084 218.564 316.954 222.436 317.701 226.164C316.892 228.022 316.127 236.931 315.699 239.164Z" fill="#B0A7A6"/>
<path d="M215.734 285.209C212.475 288.236 210.723 287.592 208.564 285.243C206.948 285.824 205.687 285.017 204.114 283.246C202.648 283.834 201.598 283.211 200.334 281.615C198.347 279.024 198.834 275.43 199.923 272.733C196.24 269.357 193.626 264.93 192.404 260.001C197.527 255.17 206.898 252.864 212.995 253.876C215.478 259.302 219.932 267.492 223.206 273.697C223.828 274.97 224.164 276.374 224.188 277.807C224.211 279.24 223.923 280.666 223.344 281.981C222.402 284.329 214.087 303.584 213.861 304.065C212.479 306.967 208.521 307.567 215.734 285.209Z" fill="#B0A7A6"/>
<path d="M435.295 212.936C434.76 212.197 433.36 210.361 429.643 205.457C429.23 204.975 428.918 204.411 428.725 203.799C428.533 203.186 428.464 202.538 428.523 201.893C428.583 201.249 428.769 200.621 429.07 200.047C429.372 199.474 429.782 198.968 430.277 198.558C430.772 198.148 431.342 197.844 431.951 197.665C432.56 197.485 433.196 197.432 433.821 197.511C434.446 197.59 435.047 197.797 435.588 198.122C436.128 198.446 436.597 198.881 436.966 199.399L437.602 200.247L438.309 199.699C438.798 199.31 439.356 199.023 439.95 198.853C440.544 198.683 441.163 198.635 441.771 198.71C442.38 198.785 442.966 198.982 443.496 199.291C444.026 199.599 444.49 200.013 444.862 200.508C445.233 201.003 445.504 201.569 445.66 202.175C445.815 202.781 445.852 203.415 445.769 204.04C445.685 204.664 445.483 205.268 445.173 205.817C444.863 206.365 444.451 206.848 443.962 207.236C438.877 211.271 437.148 212.764 436.354 213.226C435.559 213.688 435.718 213.422 435.295 212.936ZM434.371 199.004C433.659 198.788 432.894 198.812 432.187 199.073C431.481 199.333 430.871 199.817 430.447 200.453C430.022 201.089 429.804 201.845 429.826 202.609C429.848 203.373 430.108 204.106 430.568 204.7L436.062 212.011L443.222 206.355C443.903 205.748 444.336 204.901 444.43 203.987C444.525 203.073 444.276 202.163 443.732 201.443C443.189 200.723 442.394 200.249 441.51 200.117C440.626 199.986 439.721 200.207 438.981 200.736L437.797 201.649C437.673 201.741 437.519 201.781 437.368 201.76C437.218 201.739 437.082 201.658 436.99 201.536C436.441 200.39 435.523 199.478 434.388 198.951L434.371 199.004Z" fill="#6A1BCD"/>
<path d="M156.704 232.671C155.317 231.886 153.687 231.696 152.172 232.142C150.656 232.588 149.377 233.634 148.614 235.052L147.955 236.277C147.162 235.645 146.244 235.2 145.266 234.978C144.288 234.755 143.276 234.759 142.303 234.99C141.173 235.324 140.166 235.996 139.41 236.922C138.654 237.847 138.184 238.984 138.057 240.188C137.93 241.393 138.153 242.612 138.698 243.69C139.244 244.769 140.086 245.659 141.119 246.248L152.242 252.629C152.31 252.668 152.385 252.694 152.462 252.703C152.54 252.713 152.618 252.706 152.693 252.684C152.767 252.662 152.837 252.625 152.897 252.574C152.958 252.524 153.008 252.462 153.044 252.392L159.172 240.964C159.539 240.256 159.766 239.48 159.841 238.68C159.915 237.88 159.835 237.071 159.606 236.301C159.377 235.531 159.002 234.814 158.504 234.191C158.006 233.568 157.394 233.052 156.704 232.671Z" fill="#B0A7A6"/>
<path d="M190.984 176.932C195.687 178.397 200.722 175.658 202.231 170.814C203.74 165.97 201.151 160.856 196.448 159.391C191.745 157.926 186.71 160.665 185.201 165.509C183.692 170.353 186.281 175.467 190.984 176.932Z" fill="#6A1BCD"/>
<path d="M141.545 169.358L131.371 168.16L132.711 157.714C132.726 157.559 132.682 157.406 132.588 157.285C132.494 157.165 132.358 157.087 132.208 157.068C132.058 157.05 131.905 157.091 131.783 157.185C131.66 157.278 131.577 157.416 131.55 157.57L130.21 168.015L120.036 166.818C119.958 166.805 119.879 166.808 119.802 166.828C119.725 166.847 119.653 166.882 119.589 166.931C119.525 166.979 119.471 167.041 119.431 167.111C119.39 167.181 119.364 167.258 119.353 167.338C119.342 167.419 119.347 167.5 119.368 167.578C119.388 167.655 119.424 167.728 119.473 167.79C119.522 167.853 119.582 167.905 119.652 167.942C119.721 167.98 119.797 168.003 119.875 168.01L130.05 169.207L128.71 179.653C128.696 179.733 128.698 179.815 128.716 179.893C128.733 179.972 128.766 180.045 128.813 180.11C128.859 180.174 128.918 180.229 128.986 180.269C129.053 180.309 129.129 180.335 129.207 180.345C129.285 180.355 129.364 180.348 129.441 180.326C129.517 180.303 129.588 180.265 129.65 180.214C129.712 180.163 129.763 180.1 129.801 180.028C129.839 179.957 129.863 179.879 129.871 179.798L131.21 169.352L141.385 170.55C141.462 170.563 141.542 170.559 141.619 170.54C141.696 170.52 141.768 170.485 141.832 170.437C141.896 170.388 141.95 170.327 141.99 170.257C142.031 170.187 142.057 170.109 142.068 170.029C142.079 169.949 142.074 169.867 142.053 169.79C142.032 169.712 141.997 169.64 141.948 169.577C141.899 169.515 141.838 169.463 141.769 169.425C141.7 169.387 141.624 169.365 141.545 169.358V169.358Z" fill="#6A1BCD"/>
<path d="M354.919 73.7321L336.648 71.4905L339.09 52.7133C339.105 52.5584 339.061 52.4046 338.967 52.2842C338.873 52.1638 338.737 52.086 338.587 52.0673C338.437 52.0486 338.284 52.0903 338.161 52.1837C338.039 52.2772 337.955 52.4151 337.929 52.5685L335.417 71.3241L317.146 69.0825C316.995 69.0697 316.844 69.1174 316.725 69.2155C316.606 69.3137 316.527 69.4546 316.507 69.6089C316.486 69.7631 316.524 69.9186 316.613 70.0427C316.702 70.1668 316.836 70.2499 316.985 70.2745L335.256 72.516L332.762 91.277C332.748 91.3568 332.75 91.4384 332.768 91.5169C332.786 91.5953 332.819 91.669 332.865 91.7336C332.911 91.7982 332.97 91.8523 333.038 91.8927C333.106 91.9331 333.181 91.9589 333.259 91.9686C333.337 91.9784 333.417 91.9718 333.493 91.9494C333.569 91.9269 333.64 91.8891 333.702 91.838C333.764 91.7869 333.816 91.7237 333.854 91.6522C333.891 91.5807 333.915 91.5023 333.923 91.4218L336.417 72.6608L354.683 74.9203C354.759 74.9349 354.837 74.9339 354.913 74.9176C354.989 74.9012 355.062 74.8696 355.126 74.8248C355.191 74.7799 355.247 74.7226 355.29 74.6561C355.333 74.5896 355.364 74.5152 355.379 74.4372C355.395 74.3592 355.395 74.2791 355.38 74.2014C355.366 74.1237 355.336 74.0501 355.293 73.9846C355.251 73.9191 355.196 73.8631 355.131 73.8198C355.067 73.7765 354.995 73.7466 354.919 73.7321Z" fill="#6A1BCD"/>
<path d="M327.737 225.899C327.591 225.016 327.531 224.119 327.557 223.221C327.562 223.06 327.503 222.905 327.396 222.791C327.288 222.676 327.139 222.61 326.982 222.608C326.826 222.606 326.673 222.669 326.559 222.781C326.445 222.893 326.379 223.047 326.375 223.207C326.368 223.258 326.352 223.306 326.33 223.351C319.785 224.822 317.518 220.606 322.872 219.336C319.999 219.033 318.598 216.034 323.267 214.748C322.957 214.635 322.664 214.478 322.398 214.28C321.315 214.869 319.999 213.749 320.387 207.463C320.358 210.413 319.297 213.272 317.398 215.522C316.466 219.27 316.438 223.18 317.315 226.911C317.346 227.023 317.407 227.123 317.492 227.198C317.578 227.274 317.683 227.322 317.795 227.337C320.977 227.576 324.184 227.312 327.304 226.553C327.442 226.518 327.563 226.431 327.643 226.31C327.723 226.189 327.757 226.043 327.737 225.899V225.899Z" fill="#6A1BCD"/>
<path d="M349.283 225.927C349.283 225.927 357.637 217.114 359.121 211.919C366.79 208.807 368.095 201.544 362.064 196.018C362.751 188.346 362.311 179.987 358.989 179.406C357.792 179.191 358.815 178.859 337.555 191.617L317.211 187.98C315.863 187.739 314.471 187.857 313.169 188.324C311.867 188.791 310.698 189.592 309.775 190.648C308.852 191.705 308.206 192.982 307.898 194.358C307.59 195.733 307.632 197.161 308.018 198.503L297.704 197.262C297.549 197.245 297.394 197.292 297.271 197.393C297.148 197.493 297.068 197.639 297.049 197.797C297.03 197.956 297.074 198.115 297.169 198.239C297.265 198.363 297.406 198.443 297.561 198.459L308.45 199.88C308.921 200.859 309.598 201.717 310.433 202.392C311.268 203.068 312.24 203.545 313.281 203.79C313.428 203.831 313.585 203.811 313.719 203.735C313.854 203.659 313.955 203.533 314.001 203.384C314.102 203.06 313.901 202.662 313.605 202.629C305.429 200.299 308.665 187.763 316.947 189.258L317.418 189.405C314.887 193.216 313.911 197.873 314.703 202.36C314.728 202.478 314.787 202.585 314.873 202.667C314.958 202.749 315.067 202.802 315.184 202.82C315.3 202.837 315.42 202.817 315.527 202.764C315.634 202.71 315.723 202.625 315.783 202.519C318.145 202.355 320.51 202.585 322.787 203.202C324.767 203.603 324.833 204.254 324.805 205.389C324.778 206.149 324.647 206.325 324.887 206.538C324.936 206.582 324.994 206.615 325.058 206.635C325.121 206.655 325.187 206.66 325.253 206.652C327.139 206.148 329.116 206.177 330.969 206.737C330.993 206.854 331.05 206.96 331.134 207.043C331.217 207.125 331.323 207.179 331.438 207.199L334.487 207.734L348.141 224.921L327.595 379.241C327.445 379.228 304.303 376.452 304.184 376.55C304.065 376.648 303.987 376.789 303.966 376.943C303.945 377.097 303.984 377.253 304.073 377.377C304.162 377.501 304.295 377.584 304.444 377.609C329.657 380.613 328.46 380.398 328.46 380.398L349.283 225.927ZM364.565 204.703C363.689 209.359 358.397 210.865 358.253 211.017C354.998 212.092 351.553 212.37 348.2 211.829C348.677 205.184 349.897 198.605 351.838 192.221C359.835 194.081 365.517 199.558 364.565 204.703ZM335.403 206.699C333.69 203.287 335.147 195.539 337.985 192.756L354.488 182.795C347.99 193.329 346.837 212.824 346.918 212.317C346.887 212.365 346.869 212.421 346.868 212.478C346.688 215.573 346.866 218.673 347.399 221.713L335.403 206.699Z" fill="#6A1BCD"/>
<path d="M220.823 277.351C217.402 275.847 213.894 274.55 210.318 273.468C210.17 273.421 210.047 273.317 209.976 273.176C209.905 273.036 209.892 272.871 209.939 272.719C209.987 272.566 210.091 272.438 210.229 272.363C210.368 272.288 210.528 272.271 210.677 272.317C214.282 273.408 217.819 274.713 221.269 276.228C221.413 276.286 221.528 276.401 221.589 276.547C221.649 276.694 221.65 276.86 221.591 277.009C221.531 277.158 221.417 277.277 221.274 277.342C221.13 277.406 220.968 277.409 220.823 277.351V277.351Z" fill="#343E48"/>
<path d="M243.548 197.702C255.704 196.718 260.894 189.088 265.795 180.974C260.414 177.109 264.946 171.778 267.243 175.096C269.541 178.414 269.415 174.885 270.154 171.528C274.359 171.621 278.532 172.2 282.595 173.254C282.758 191.778 278.727 203.121 266.572 189.418C266.742 191.82 267.358 194.16 268.387 196.312C267.929 198.738 268.084 201.233 268.837 203.56C269.59 205.886 270.917 207.966 272.69 209.599L274.104 211.203C272.353 216.364 269.871 221.245 266.74 225.687C261.399 217.576 250.409 204.374 241.486 197.868L243.548 197.702Z" fill="#B0A7A6"/>
<path d="M292.293 404.757C292.389 404.744 292.48 404.707 292.558 404.649C292.637 404.591 292.7 404.513 292.741 404.424C297.739 394.526 314.998 354.852 319.7 341.846C323.862 330.268 324.887 322.8 301.327 295.075C305.751 293.161 308.891 285.602 323.353 237.763C324.081 235.426 319.641 233.393 317.149 232.36C317.869 226.67 318.149 227.368 317.783 227.313C317.418 227.259 317.232 226.688 317.11 226.157C316.263 228.2 315.654 235.562 315.182 238.49C309.081 237.841 303.108 236.339 297.431 234.025C298.078 231.21 299.027 226.321 300.25 222.088C302.455 214.396 303.556 212.827 306.446 209.941C309.143 207.178 312.143 204.744 315.385 202.691C316.867 201.989 320.26 202.711 322.862 203.266C324.809 203.655 324.775 204.256 324.751 205.254C324.499 207.766 323.946 210.243 323.105 212.627C322.864 213.4 322.261 213.922 321.971 213.871C321.68 213.82 320.783 212.338 321.078 207.52C321.09 207.359 321.039 207.201 320.937 207.08C320.834 206.96 320.689 206.887 320.532 206.877C320.375 206.867 320.219 206.922 320.1 207.029C319.98 207.136 319.907 207.286 319.894 207.447C319.334 213.365 317.14 216.841 313.167 218.107C313.017 218.155 312.891 218.261 312.817 218.402C312.742 218.544 312.725 218.709 312.769 218.861C312.813 219.013 312.915 219.14 313.051 219.214C313.188 219.288 313.349 219.303 313.498 219.256C315.042 218.775 316.449 217.905 317.589 216.727C318.729 215.549 319.565 214.099 320.02 212.514C320.272 213.795 320.664 214.686 321.327 214.893C319.022 216.146 319.248 218.188 321.052 219.341C318.493 220.673 319.001 223.158 321.426 223.914C323.331 224.372 325.328 224.315 327.221 223.747C327.692 223.631 328.133 223.405 328.508 223.086C328.882 222.768 329.181 222.365 329.38 221.911C329.579 221.457 329.673 220.963 329.655 220.469C329.636 219.974 329.506 219.493 329.273 219.063C329.673 218.879 330.03 218.61 330.322 218.274C330.615 217.938 330.835 217.544 330.968 217.117C331.101 216.69 331.144 216.24 331.094 215.798C331.044 215.356 330.902 214.931 330.679 214.553C331.357 214.095 331.844 213.392 332.038 212.587C332.231 211.782 332.118 210.936 331.721 210.224C332.161 209.952 332.514 209.553 332.735 209.078C332.956 208.603 333.035 208.074 332.961 207.558C332.888 207.042 332.665 206.562 332.322 206.181C331.979 205.8 331.531 205.534 331.036 205.417C329.39 205.024 327.678 204.981 326.003 205.289C326.037 203.643 325.608 202.563 323.174 202.081C320.228 201.459 316.905 200.759 315.083 201.631C311.706 203.741 308.583 206.257 305.782 209.123C302.445 212.461 300.638 215.19 297.779 227.746C294.879 227.532 291.562 227.978 291.114 229.908C291.08 230.016 291.164 229.747 290.217 236.352C287.553 228.233 283.345 220.758 277.831 214.355C278.86 214.152 279.82 213.665 280.606 212.948C281.393 212.23 281.977 211.31 282.296 210.285C283.233 211.137 284.388 211.699 285.631 211.909C286.874 212.119 288.155 211.968 289.33 211.473C290.505 210.978 291.527 210.159 292.281 209.109C293.036 208.058 293.492 206.817 293.599 205.525C298.896 206.525 301.926 201.101 300.399 196.662C301.311 196.692 302.217 196.451 303.007 195.968C303.798 195.485 304.439 194.781 304.854 193.94C305.27 193.1 305.442 192.158 305.349 191.229C305.257 190.299 304.904 189.422 304.333 188.701C305.224 188.596 306.078 188.26 306.813 187.725C307.548 187.19 308.14 186.473 308.533 185.643C308.926 184.813 309.106 183.897 309.058 182.982C309.009 182.068 308.732 181.185 308.253 180.419C313.429 179.35 313.856 172.878 310.775 169.375C314.791 167.728 315.617 161.203 311.294 159.166C312.148 158.404 312.774 157.41 313.098 156.303C313.422 155.196 313.43 154.022 313.122 152.921C312.813 151.82 312.202 150.838 311.359 150.092C310.516 149.346 309.478 148.867 308.368 148.713C310.241 144.052 307.899 139.892 302.378 140.104C302.645 138.966 302.61 137.779 302.277 136.67C301.943 135.56 301.323 134.568 300.482 133.796C299.641 133.024 298.609 132.502 297.494 132.283C296.38 132.064 295.223 132.157 294.145 132.551C293.962 126.994 288.969 123.605 283.097 126.724C282.683 121.292 275.183 118.64 271.921 123.026C269.23 118.087 261.596 118.075 259.422 122.839C255.682 117.455 248.04 120.358 245.998 125.932C241.571 122.384 234.921 127.509 234.919 133.108C228.415 132.541 224.854 138.194 227.25 143.593C221.143 144.392 219.626 150.307 222.452 154.756C217.144 157.045 216.284 163.618 220.943 166.667C219.918 167.566 219.138 168.722 218.678 170.017C218.218 171.312 218.096 172.703 218.323 174.05C218.55 175.397 219.119 176.653 219.972 177.695C220.826 178.736 221.934 179.525 223.188 179.984C219.325 184.518 221.686 190.951 227.246 191.106C226.667 192.196 226.393 193.425 226.452 194.654C226.512 195.884 226.903 197.067 227.583 198.072C215.39 198.808 203.032 199.769 192.586 202.824C177.437 207.272 169.056 215.742 174.674 230.642C179.032 242.153 182.182 250.725 189.445 265.999C190.326 268.64 193.456 269.221 196.226 269.177C197.159 270.512 198.225 271.743 199.409 272.849C198.733 274.3 198.437 275.901 198.549 277.492C198.661 279.083 199.177 280.61 200.048 281.92C200.433 282.639 201.028 283.214 201.751 283.566C202.474 283.918 203.29 284.031 204.086 283.888C204.574 284.608 205.249 285.172 206.036 285.518C206.824 285.865 207.693 285.979 208.548 285.849C210.495 287.895 212.304 288.478 214.766 286.84C213.725 290.183 209.107 305.01 212.23 305.983C212.91 306.194 213.699 305.691 214.308 304.658C214.047 307.278 213.857 310.038 213.761 312.926C206.463 304.955 186.928 281.698 186.24 281.818C185.551 281.939 184.164 282.335 183.141 282.608C180.989 279.256 179.204 275.092 178.369 275.069C165.093 274.856 133.714 286.118 125.814 293.968C125.745 294.037 125.693 294.121 125.663 294.214C125.633 294.307 125.625 294.406 125.64 294.502C125.655 294.598 125.693 294.688 125.751 294.765C125.808 294.842 125.883 294.903 125.969 294.943C140.21 301.706 152.129 299.267 162.19 300.706C161.367 302.406 160.689 304.173 160.162 305.989C160.102 306.086 160.069 306.198 160.067 306.312C160.066 306.427 160.095 306.539 160.151 306.636C163.481 311.616 191.063 349.782 203.155 364.549C217.751 382.522 233.409 380.618 241.098 363.002C243.97 356.424 251.049 338.678 257.207 323.148C257.207 323.148 277.532 336.005 282.153 338.805C279.509 345.02 265.717 376.389 265.706 376.424C260.374 388.564 260.615 387.792 260.845 388.159C261.525 389.23 262.274 390.254 263.087 391.223C259.228 396.606 253.094 400.137 253.258 401.331C254.997 414.491 270.035 439.955 279.312 450.731C279.384 450.809 279.475 450.865 279.576 450.895C279.677 450.925 279.784 450.927 279.887 450.901C279.99 450.876 280.084 450.823 280.162 450.748C280.24 450.674 280.297 450.58 280.329 450.476C285.883 430.066 276.941 416.003 281.7 403.429C285.089 404.627 288.698 405.079 292.293 404.757ZM326.837 222.523C325.362 222.952 323.821 223.063 322.313 222.849C321.193 222.698 320.635 222.09 320.531 221.565C320.427 221.039 321.138 220.354 322.965 219.898C324.688 220.104 326.44 219.982 328.131 219.536C328.319 219.799 328.435 220.11 328.468 220.437C328.501 220.763 328.449 221.095 328.318 221.397C328.187 221.7 327.981 221.963 327.721 222.161C327.461 222.359 327.156 222.484 326.837 222.523ZM328.928 214.027C327.171 214.541 325.319 214.564 323.567 214.092C324.211 213.067 324.657 211.927 324.881 210.736C326.776 211.07 328.719 211.068 330.625 210.731C331.349 211.785 330.795 213.564 328.906 214.099L328.928 214.027ZM330.636 206.515C332.503 207.097 331.653 209.395 329.668 209.624C328.164 209.81 326.646 209.782 325.157 209.54C325.42 208.531 325.618 207.506 325.75 206.472C327.365 206.133 329.028 206.172 330.614 206.587L330.636 206.515ZM323.383 215.297C325.399 215.809 327.524 215.733 329.519 215.079C329.674 215.239 329.786 215.438 329.846 215.656C329.905 215.874 329.909 216.105 329.858 216.328C329.57 218.111 327.447 218.475 325.681 218.674C323.504 218.903 320.958 218.721 320.883 217.179C320.82 216.706 321.443 215.934 323.361 215.368L323.383 215.297ZM321.721 239.068C320.624 242.591 319.594 245.897 318.631 248.988C312.975 252.766 297.13 248.757 290.158 243.056C290.675 239.491 291.334 235.103 291.677 232.035C295.615 235.983 315.125 241.745 321.768 239.162L321.721 239.068ZM266.304 181.31C266.381 181.18 266.408 181.025 266.379 180.878C266.351 180.73 266.269 180.6 266.15 180.513C261.581 177.236 264.988 172.876 266.767 175.46C267.344 176.311 268.043 177.139 268.847 176.956C270.026 176.673 270.12 174.652 270.625 172.167C274.478 172.22 278.305 172.712 282.037 173.632C282.111 191.399 278.656 201.876 267.031 188.93C266.95 188.839 266.843 188.777 266.725 188.751C266.607 188.726 266.483 188.739 266.371 188.788C266.259 188.838 266.164 188.921 266.1 189.027C266.035 189.133 266.004 189.257 266.01 189.38C266.181 191.808 266.786 194.175 267.797 196.364C266.674 202.796 269.046 206.611 273.428 211.347C271.793 216.063 269.554 220.544 266.77 224.671C260.088 214.844 252.126 206.011 243.098 198.41C254.836 197.413 260.11 191.545 266.304 181.31ZM184.712 253.169C180.895 244.409 178.69 238.399 175.603 230.242C171.304 218.847 174.694 209.316 192.709 204.025C207.153 199.811 225.438 199.612 241.302 198.461C249.886 204.763 260.539 217.328 266.274 225.956C266.324 226.034 266.392 226.099 266.472 226.145C266.551 226.191 266.641 226.217 266.733 226.221C266.825 226.225 266.917 226.206 267.002 226.167C267.086 226.127 267.161 226.068 267.219 225.994C270.219 221.78 272.62 217.156 274.348 212.265C281.496 219.766 286.757 228.942 289.69 239.027C288.525 246.944 286.272 262.291 285.798 266.698C285.79 266.777 285.797 266.856 285.819 266.932C285.841 267.008 285.877 267.078 285.926 267.139C285.974 267.2 286.034 267.25 286.102 267.287C286.17 267.324 286.245 267.346 286.322 267.353C286.399 267.361 286.476 267.352 286.551 267.328C286.625 267.305 286.694 267.267 286.754 267.216C286.815 267.165 286.865 267.103 286.902 267.032C286.939 266.962 286.962 266.885 286.971 266.806C287.303 263.282 288.77 253.349 290.104 244.459C296.562 249.349 311.178 253.863 318.284 250.655C307.014 287.324 304.327 292.756 300.585 294.075C294.96 287.552 288.118 279.959 279.644 270.971C279.072 265.78 278.782 260.556 278.776 255.323C283.908 233.44 280.501 227.292 277.195 221.314L276.823 220.666C276.791 220.589 276.744 220.519 276.685 220.462C276.625 220.406 276.554 220.362 276.477 220.336C276.399 220.309 276.317 220.299 276.235 220.307C276.153 220.315 276.074 220.341 276.002 220.382C275.929 220.423 275.866 220.48 275.816 220.547C275.766 220.615 275.73 220.692 275.711 220.774C275.692 220.856 275.69 220.942 275.705 221.024C275.719 221.107 275.751 221.185 275.798 221.253C279.263 227.518 281.054 231.723 279.887 242.538C278.798 250.662 277.029 258.686 274.598 266.521C267.407 273.015 249.568 269.015 240.783 262.868C237.847 255.762 233.676 246.538 230.173 239.473C232.954 236.959 235.604 234.296 238.113 231.497C238.186 231.411 238.234 231.307 238.253 231.196C238.271 231.085 238.259 230.971 238.217 230.868C238.176 230.765 238.106 230.676 238.017 230.612C237.928 230.547 237.823 230.51 237.713 230.505C231.289 230.357 212.974 230.408 208.263 230.597C207.044 227.753 205.95 225.303 205.131 223.569C205.061 223.427 204.939 223.32 204.79 223.272C204.642 223.224 204.48 223.239 204.34 223.313C204.2 223.387 204.094 223.514 204.045 223.667C203.995 223.82 204.007 223.986 204.077 224.128C205.982 228.151 209.445 236.328 212.518 243.791C202.953 239.471 187.979 246.064 184.712 253.169ZM219.229 256.844C216.227 249.521 212.298 240.075 208.827 231.798C211.765 231.708 218.436 231.676 224.69 231.633C230.232 241.772 235.205 252.233 239.584 262.967C233.584 265.375 228.311 269.404 224.335 274.62C223.897 273.321 223.357 272.719 217.792 262.074C218.224 261.828 218.605 261.496 218.912 261.099C219.219 260.701 219.446 260.246 219.579 259.76C219.713 259.274 219.75 258.767 219.689 258.269C219.628 257.771 219.47 257.292 219.224 256.862L219.229 256.844ZM191.995 259.716C190.854 260.74 189.962 262.023 189.393 263.46C187.906 260.368 186.584 257.465 185.425 254.752C187.163 247.821 203.712 239.924 213.332 245.543L217.13 254.612C215.981 253.957 214.727 253.513 213.423 253.3C213.311 253.207 213.167 253.162 213.022 253.175C209.344 252.764 205.61 253.107 202.038 254.184C198.466 255.261 195.126 257.05 192.213 259.449C192.122 259.521 192.048 259.612 191.995 259.716ZM213.325 303.82C213.157 304.279 212.853 304.674 212.456 304.949C212.456 304.949 210.526 303.401 216.289 285.58C217.452 284.429 218.538 283.2 219.54 281.9C219.622 281.776 219.657 281.625 219.637 281.478C219.617 281.33 219.544 281.196 219.432 281.103C219.321 281.009 219.178 280.962 219.033 280.97C218.887 280.978 218.749 281.042 218.645 281.148C217.216 282.911 214.219 286.571 212.052 286.645C211.58 286.629 211.118 286.512 210.695 286.303C210.273 286.093 209.899 285.795 209.598 285.427C211.679 284.02 213.52 282.267 215.041 280.243C215.143 280.12 215.194 279.962 215.182 279.803C215.171 279.644 215.098 279.497 214.98 279.395C214.862 279.293 214.709 279.244 214.553 279.258C214.398 279.273 214.254 279.35 214.152 279.473C211.058 283.26 209.122 284.806 207.69 284.853C207.198 284.808 206.722 284.661 206.29 284.422C205.858 284.182 205.479 283.855 205.177 283.459C207.186 282.032 209.002 280.336 210.576 278.418C210.676 278.298 210.728 278.144 210.72 277.988C210.712 277.832 210.645 277.686 210.532 277.582C210.42 277.477 210.272 277.423 210.119 277.429C209.967 277.436 209.821 277.503 209.715 277.617C208.335 279.159 205.067 282.951 203.223 282.909C202.516 282.906 201.81 282.469 200.939 281.271C200.25 280.178 199.834 278.926 199.726 277.621C199.619 276.317 199.824 275 200.323 273.785C201.374 274.661 202.506 275.429 203.704 276.08C203.665 276.206 202.864 277.119 202.79 277.234C202.737 277.297 202.698 277.369 202.674 277.447C202.649 277.526 202.641 277.608 202.648 277.689C202.656 277.77 202.68 277.848 202.718 277.919C202.757 277.99 202.809 278.052 202.872 278.101C202.935 278.15 203.007 278.185 203.084 278.205C203.161 278.224 203.241 278.227 203.32 278.213C203.399 278.2 203.474 278.17 203.542 278.126C203.61 278.081 203.668 278.024 203.713 277.956C203.976 277.604 205.778 275.445 206.229 274.796C206.321 274.665 206.358 274.503 206.334 274.346C206.309 274.189 206.224 274.049 206.098 273.957C205.972 273.865 205.814 273.83 205.66 273.857C205.506 273.885 205.368 273.974 205.277 274.105C205.209 274.321 204.825 274.694 204.477 275.138C201.724 273.563 199.316 271.436 197.394 268.88C195.471 266.324 194.073 263.392 193.282 260.255C198.869 255.844 205.868 253.786 212.816 254.511C214.23 257.593 216.563 262.085 216.651 262.231C222.881 274.187 223.24 274.141 223.62 275.995C223.976 277.912 223.737 279.905 222.935 281.696C221.623 284.738 214.4 301.414 213.301 303.773L213.325 303.82ZM203.456 303.486C205.541 307.605 209.561 315.778 213.675 325.123C213.728 326.244 213.781 327.364 213.846 328.508C213.855 328.668 213.925 328.816 214.041 328.921C214.158 329.025 214.311 329.078 214.467 329.066C214.623 329.055 214.769 328.98 214.873 328.859C214.977 328.738 215.03 328.58 215.022 328.421C214.41 319.386 214.677 310.295 215.818 301.284C218.283 295.645 223.042 284.608 223.983 282.141C224.778 280.226 225.065 278.138 224.815 276.091C228.78 270.603 234.197 266.386 240.406 263.953C241.488 264.688 242.606 265.365 243.756 265.982C225.573 281.768 220.562 313.034 217.153 344.009C210.003 335.315 181.584 301.68 179.261 298.69C183.317 295.043 188.362 292.768 193.692 292.184L203.456 303.486ZM185.717 283.312L192.573 291.106C181.782 292.318 170.463 303.46 166.775 313.885C164.021 310.069 162.042 307.264 161.265 306.135C162.975 300.45 166.149 295.322 170.451 291.294C174.753 287.267 180.02 284.492 185.693 283.265L185.717 283.312ZM283.451 338.756C283.502 338.62 283.505 338.471 283.461 338.334C283.416 338.198 283.325 338.083 283.205 338.009L280.666 336.449C273.487 328.569 267.318 319.778 262.305 310.284C264.522 304.705 266.298 300.231 267.201 298.009C267.263 297.861 267.264 297.694 267.206 297.547C267.148 297.399 267.035 297.283 266.891 297.222C266.747 297.162 266.585 297.163 266.44 297.225C266.295 297.287 266.179 297.405 266.118 297.553C264.702 301.055 243.362 354.875 240.009 362.564C233.075 378.68 218.612 381.726 204.057 363.805C194.731 352.324 177.224 328.456 167.63 315.136C169.772 309.109 173.424 303.744 178.216 299.586C182.814 305.534 202.201 327.976 216.995 345.991C217.067 346.082 217.165 346.149 217.275 346.182C217.386 346.216 217.504 346.216 217.615 346.181C217.726 346.146 217.826 346.078 217.9 345.986C217.975 345.894 218.022 345.782 218.035 345.664C221.444 314.255 226.286 282.306 244.761 266.69C253.071 270.737 267.832 273.739 274.886 267.931C321.689 317.151 324.025 326.612 318.614 341.586C315.065 351.443 304.266 376.706 297.103 392.573C286.718 393.281 270.911 384.848 266.953 376.478C270.429 368.452 282.128 341.833 283.427 338.709L283.451 338.756ZM262.016 387.656C263.017 385.366 264.554 381.842 266.375 377.717C271.065 386.138 285.979 394.056 296.57 393.669C294.652 397.921 293.015 401.394 291.915 403.575C283.533 404.611 268.396 397.53 262.016 387.656Z" fill="#343E48"/>
<path d="M413.3 408.308C424.922 411.511 450.759 434.25 455.6 445.559C454.387 445.133 453.48 444.895 452.592 444.455C450.92 443.746 449.296 442.96 447.577 442.329C446.088 441.839 444.999 442.237 444.733 443.355C444.324 444.705 445.117 445.299 446.158 445.834C450.294 447.846 454.554 449.827 458.861 451.731C460.839 452.628 462.184 451.641 462.316 449.373C462.362 448.441 462.132 447.445 462.179 446.512C462.145 440.405 462.14 434.422 462.135 428.438C462.144 427.91 462.277 427.351 462.067 427.008C461.646 426.322 461.044 425.417 460.442 425.368C459.764 425.271 458.781 425.84 458.4 426.46C457.971 427.157 457.924 428.089 457.801 428.974C457.679 431.569 457.758 434.18 457.636 436.774C457.608 437.505 457.503 438.188 457.409 439.198C456.921 438.791 456.692 438.65 456.587 438.478C446.101 424.014 432.257 413.463 416.897 404.862C414.633 403.576 412.178 402.598 409.733 401.948C406.611 401.2 403.869 399.833 401.29 398.032C396.16 394.553 390.563 392.176 384.289 391.411C380.776 390.956 377.205 391.107 373.682 392.036C365.75 394.308 360.809 399.596 359.079 407.714C357.748 414.156 358.813 420.471 361.243 426.452C365.836 437.822 373.816 446.258 384.495 452.191C385.26 452.662 386.09 452.853 386.873 453.122C387.886 453.531 388.754 453.318 389.298 452.265C389.841 451.211 389.267 450.431 388.427 449.913C387.968 449.631 387.386 449.379 386.927 449.097C378.54 444.575 372.214 437.904 367.49 429.657C364.928 425.089 363.329 420.154 362.894 414.868C362.691 411.433 362.965 408.077 364.394 404.899C366.786 399.644 370.994 396.575 376.569 395.735C383.633 394.531 389.994 396.524 396.528 400.119C395.64 400.534 395.048 400.81 394.504 401.009C394.084 401.178 393.588 401.299 393.091 401.421C385.885 403.712 381.374 409.158 380.75 416.676C380.628 418.416 380.581 420.203 380.831 421.851C383.106 435.959 391.163 445.297 404.209 450.125C410.073 452.239 415.773 451.37 420.533 446.718C423.69 443.643 424.947 439.718 425.068 435.414C425.15 431.514 424.288 427.779 422.852 424.119C420.929 419.198 418.118 414.691 414.916 410.477C414.371 409.821 413.95 409.135 413.3 408.308ZM399.544 443.836C394.128 439.968 389.387 434.486 386.938 428.708C385.378 425.078 384.487 421.219 384.866 417.18C385.491 411.372 388.523 407.472 394.098 405.778C396.427 405.076 399.024 404.966 401.496 404.886C402.547 404.892 403.788 405.443 404.581 406.038C411.719 412.247 417.215 419.581 419.868 428.796C420.567 431.255 420.798 433.96 420.648 436.431C420.11 443.468 414.662 447.696 407.872 446.4C405.037 446.042 402.371 444.722 399.544 443.836Z" fill="#343E48"/>
</svg>
