<svg width="677" height="786" viewBox="0 0 677 786" fill="none" xmlns="http://www.w3.org/2000/svg">
<path d="M328.534 214.155C353.311 238.775 368.537 271.867 384.397 303.145C395.445 324.932 405.927 355.881 432.013 359.973C439.108 360.089 444.565 361.82 452.006 360.579C461.496 358.998 467.961 357.752 476.416 351.842C490.605 341.925 501.069 326.463 517.176 319.604C525.865 315.903 533.764 311.715 542.996 312.186C553.952 312.744 562.062 314.854 569.564 322.079C577.476 329.698 578.249 342.581 577.925 353.734C577.482 368.962 575.559 386.652 571.199 401.697C565.501 421.362 553.512 439.231 548.831 459.049C544.857 475.874 544.578 493.717 543.78 510.554C543.033 526.29 545.445 542.556 542.293 558.315C540.027 569.641 532.604 576.005 524.102 584.041C504.741 602.34 479.54 615.874 454.411 620.92C443.05 623.201 432.603 621.742 422.083 618.978C403.855 614.19 385.787 609.037 367.546 604.348C351.22 600.151 333.885 598.304 316.857 596.655C298.365 594.864 277.655 594.521 258.651 597.311C223.279 602.505 186.125 611.99 151.875 604.514C134.536 600.729 120.235 583.176 114.259 567.121C107.903 550.049 110.733 532.659 116.652 514.218C124.396 490.088 137.155 469.105 152.205 448.239C160.387 436.895 169.15 425.948 178.177 415.229C185.254 406.825 192.984 398.621 198.743 389.278C208.797 372.97 213.366 354.117 213.387 336.132C213.397 327.617 214.152 319.063 214.13 310.549C214.111 303.123 213.644 295.64 214.683 288.124C216.737 273.272 221.348 258.55 223.347 243.677C225.437 228.126 236.263 213.877 250.9 207.245C264.667 201.007 276.367 198.923 290.67 197.704C297.843 197.093 305.953 197.953 312.377 200.46C318.675 202.919 323.887 209.538 328.534 214.155Z" fill="#B0A7A6" fill-opacity="0.3"/>
<path fill-rule="evenodd" clip-rule="evenodd" d="M97.568 455.691C96.5631 469.818 96.0913 477.766 103.299 492.281C117.231 520.336 167.946 544.272 196.148 516.993C211.043 502.584 212.057 487.045 214.712 469.429C216.113 460.139 212.179 440.484 207.862 432.134C202.72 422.186 198.216 413.4 186.977 406.744C140.71 379.342 97.568 422.106 97.568 455.691Z" fill="#42535D"/>
<path d="M81.0001 361.024C88.3198 361.31 95.5325 367.555 98.9889 373.577C101.026 374.738 101.482 378.889 100.509 385.554C99.9391 389.456 93.8845 393.581 90.7117 395.167C85.8166 397.615 78.1495 398.298 72.7036 397.889C64.7114 397.288 56.4757 391.141 50.2458 386.741C43.958 382.301 41.5172 376.148 47.1814 370.449C53.3979 364.193 61.7419 363.354 70.0742 361.997C73.7117 361.405 77.3017 360.88 81.0001 361.024Z" fill="#B0A7A6"/>
<path d="M321.78 12.0396C323.79 19.7724 319.014 28.0072 319.014 28.0072C319.014 28.0072 310.977 23.7045 308.966 15.9717C306.956 8.23884 311.732 0.00406864 311.732 0.00406864C311.732 0.00406864 319.769 4.30673 321.78 12.0396Z" fill="#B0A7A6" fill-opacity="0.5"/>
<path d="M98.7572 247.04C100.768 254.772 95.9911 263.007 95.9911 263.007C95.9911 263.007 87.9545 258.705 85.9439 250.972C83.9333 243.239 88.71 235.004 88.71 235.004C88.71 235.004 96.7466 239.307 98.7572 247.04Z" fill="#343E48" fill-opacity="0.05"/>
<path d="M331.601 17.8126C323.874 19.8213 319.014 28.0071 319.014 28.0071C319.014 28.0071 326.683 32.9362 334.41 30.9275C342.138 28.9189 346.998 20.7331 346.998 20.7331C346.998 20.7331 339.329 15.8039 331.601 17.8126Z" fill="#B0A7A6" fill-opacity="0.5"/>
<path d="M108.579 252.813C100.851 254.821 95.9914 263.007 95.9914 263.007C95.9914 263.007 103.66 267.936 111.388 265.927C119.115 263.919 123.975 255.733 123.975 255.733C123.975 255.733 116.306 250.804 108.579 252.813Z" fill="#343E48" fill-opacity="0.05"/>
<path d="M306.421 38.2099C314.149 36.2012 319.009 28.0154 319.009 28.0154C319.009 28.0154 311.34 23.0862 303.613 25.0949C295.885 27.1035 291.025 35.2893 291.025 35.2893C291.025 35.2893 298.694 40.2186 306.421 38.2099Z" fill="#B0A7A6" fill-opacity="0.5"/>
<path d="M83.399 273.21C91.1266 271.201 95.9866 263.015 95.9866 263.015C95.9866 263.015 88.3177 258.086 80.5901 260.095C72.8625 262.104 68.0026 270.289 68.0026 270.289C68.0026 270.289 75.6714 275.219 83.399 273.21Z" fill="#343E48" fill-opacity="0.05"/>
<path d="M316.243 43.983C314.232 36.2501 319.009 28.0153 319.009 28.0153C319.009 28.0153 327.045 32.3179 329.056 40.0507C331.067 47.7836 326.29 56.0184 326.29 56.0184C326.29 56.0184 318.253 51.7158 316.243 43.983Z" fill="#B0A7A6" fill-opacity="0.5"/>
<path d="M93.2202 278.983C91.2096 271.25 95.9864 263.015 95.9864 263.015C95.9864 263.015 104.023 267.318 106.033 275.051C108.044 282.784 103.267 291.018 103.267 291.018C103.267 291.018 95.2307 286.716 93.2202 278.983Z" fill="#343E48" fill-opacity="0.05"/>
<path d="M234.333 288.226C234.453 285.454 235.164 282.74 236.419 280.264C237.673 277.789 239.442 275.611 241.606 273.874C256.232 261.81 271.812 250.951 288.192 241.403C288.778 235.476 289.99 229.628 291.807 223.955L315.229 217.245C315.229 217.245 342.743 238.892 336.054 258.505C332.352 269.328 317.719 283.81 268.341 295.154C273.281 320.823 279.699 346.185 287.564 371.114C285.399 367.023 274.575 364.62 261.803 366.049C247.862 367.672 237.039 372.695 237.493 377.414L237.342 377.608C234.078 347.934 233.073 318.054 234.333 288.226V288.226Z" fill="#B0A7A6"/>
<path d="M226.215 258.353C269.51 235.212 289.902 228.479 290.681 227.895C289.392 232.33 288.558 236.885 288.192 241.49C271.812 251.037 256.232 261.896 241.607 273.961C239.442 275.697 237.673 277.876 236.419 280.351C235.165 282.826 234.453 285.541 234.333 288.313C234.333 289.742 234.203 291.17 234.16 292.642L191.969 354.987C193.896 351.437 187.64 341.998 177.4 333.339C167.161 324.68 157.03 320.156 153.718 322.516L215.911 265.691C219.019 262.816 222.482 260.349 226.215 258.353V258.353Z" fill="#B0A7A6"/>
<path d="M188.787 182.847C189.019 179.398 189.97 176.035 191.579 172.976C191.619 172.928 191.647 172.873 191.662 172.813C191.676 172.754 191.678 172.691 191.665 172.631C191.653 172.571 191.627 172.514 191.59 172.465C191.553 172.416 191.506 172.376 191.451 172.348C191.396 172.32 191.336 172.304 191.275 172.303C191.213 172.301 191.152 172.313 191.096 172.338C191.04 172.363 190.99 172.4 190.95 172.447C190.91 172.493 190.881 172.548 190.865 172.608C189.189 175.758 188.186 179.223 187.921 182.782C187.917 182.839 187.924 182.896 187.942 182.95C187.959 183.004 187.988 183.055 188.025 183.098C188.062 183.141 188.107 183.176 188.158 183.202C188.209 183.228 188.265 183.243 188.322 183.248C188.378 183.252 188.436 183.245 188.49 183.227C188.544 183.209 188.594 183.181 188.637 183.144C188.68 183.106 188.716 183.061 188.742 183.01C188.767 182.959 188.783 182.904 188.787 182.847V182.847Z" fill="#343E48"/>
<path d="M157.658 139.076C160.051 136.671 162.899 134.766 166.036 133.473C169.173 132.179 172.536 131.523 175.929 131.543C180.434 131.555 184.858 132.745 188.761 134.996C192.664 137.246 195.91 140.478 198.177 144.372C200.444 148.265 201.654 152.684 201.685 157.189C201.716 161.694 200.568 166.129 198.355 170.053C198.331 170.103 198.296 170.146 198.253 170.181C198.211 170.216 198.161 170.241 198.108 170.256C198.055 170.27 197.999 170.273 197.945 170.264C197.89 170.255 197.838 170.235 197.792 170.205C195.628 168.863 189.415 164.122 188.571 164.598C188.544 164.683 188.544 164.774 188.571 164.858C188.895 167.023 193.571 171.352 195.346 172.933C195.584 173.127 195.346 173.301 195.346 174.037C195.385 174.134 195.385 174.242 195.346 174.34C193.051 176.89 190.27 178.958 187.166 180.421C184.062 181.884 180.697 182.713 177.269 182.86C173.841 183.007 170.418 182.468 167.2 181.276C163.982 180.084 161.035 178.262 158.53 175.917C156.025 173.571 154.013 170.75 152.611 167.618C151.21 164.486 150.447 161.105 150.368 157.675C150.289 154.244 150.895 150.832 152.15 147.639C153.406 144.445 155.286 141.534 157.68 139.076H157.658Z" fill="#EF3851"/>
<path d="M114.082 368.56C122.146 360.726 131.278 354.072 141.206 348.796C147.7 345.462 152.593 340.353 157.333 335.396C154.757 332.171 149.995 325.287 153.004 322.408L215.63 265.15C218.737 262.302 222.192 259.858 225.912 257.877C246.78 246.533 268.29 236.413 290.335 227.571C290.811 225.795 291.201 224.497 291.352 224.064C287.528 217.088 284.193 209.855 281.373 202.416C275.209 206.539 268.508 209.795 261.457 212.093C257.819 213.372 253.868 213.455 250.179 212.331C235.619 207.925 221.408 202.44 207.664 195.922C207.586 195.882 207.524 195.819 207.485 195.741C207.446 195.663 207.433 195.575 207.447 195.489C207.447 195.078 207.447 194.667 207.62 194.234C205.152 193.411 189.718 187.956 182.379 180.574C182.324 180.494 182.299 180.397 182.309 180.3C182.319 180.203 182.363 180.113 182.433 180.045C182.503 179.978 182.595 179.937 182.692 179.931C182.789 179.925 182.886 179.953 182.964 180.011C190.064 187.155 204.979 192.48 207.75 193.433C208.63 188.301 210.576 183.412 213.465 179.08C208.12 176.5 202.93 173.608 197.922 170.421C195.952 169.166 189.48 164.295 188.614 164.75C188.587 164.834 188.587 164.925 188.614 165.01C188.939 167.174 193.614 171.504 195.389 173.084C195.437 173.128 195.473 173.182 195.496 173.242C195.518 173.302 195.526 173.367 195.519 173.43C195.173 176.266 197.684 179.535 202.879 183.107C202.947 183.124 203.01 183.158 203.061 183.205C203.112 183.253 203.15 183.313 203.172 183.379C203.193 183.446 203.198 183.517 203.184 183.586C203.171 183.654 203.14 183.718 203.095 183.772C203.049 183.825 202.991 183.866 202.926 183.891C202.86 183.916 202.79 183.923 202.72 183.913C202.651 183.903 202.586 183.875 202.53 183.832C202.475 183.79 202.431 183.734 202.403 183.67C197.035 179.99 194.437 176.569 194.675 173.452C193.636 172.543 188.181 167.694 187.791 165.031C187.736 164.838 187.741 164.632 187.807 164.443C187.873 164.253 187.996 164.088 188.159 163.971C189.631 163.04 195.173 167.586 198.355 169.621C203.366 172.827 208.572 175.719 213.941 178.279L214.829 177.111C214.883 177.04 214.959 176.99 215.045 176.966C215.131 176.943 215.222 176.948 215.305 176.981C230.458 183.475 243.1 187.609 253.643 189.298C264.675 185.344 275.158 179.997 284.836 173.387C288.82 170.789 287.001 165.031 286.373 163.581C285.512 164.04 284.565 164.314 283.592 164.384C282.619 164.455 281.642 164.322 280.723 163.992C274.662 161.416 275.312 148.255 275.355 141.566C275.008 139.592 275.052 137.569 275.485 135.613C274.38 133.946 273.887 131.949 274.087 129.96C274.288 127.971 275.17 126.113 276.585 124.701C278 123.288 279.86 122.409 281.849 122.212C283.838 122.015 285.835 122.512 287.499 123.62C290.447 122.993 293.512 123.226 296.331 124.291C297.324 122.739 298.697 121.467 300.32 120.594C301.942 119.722 303.761 119.278 305.603 119.304C307.445 119.331 309.25 119.827 310.846 120.746C312.443 121.665 313.779 122.977 314.727 124.556C315.675 126.136 316.204 127.931 316.265 129.773C316.325 131.614 315.914 133.44 315.071 135.078C314.229 136.717 312.982 138.113 311.449 139.134C309.915 140.156 308.147 140.769 306.311 140.916C305.863 144.348 304.296 147.536 301.851 149.986C300.004 152.212 298.581 154.758 297.652 157.498C296.959 159.987 297.392 163.364 299.362 163.992C301.786 164.836 304.362 163.364 306.332 161.698C328.954 142.799 344.323 127.386 360.732 100.371C361.07 99.701 361.614 99.1582 362.285 98.8228C362.956 98.4874 363.717 98.3773 364.455 98.5089C367.161 93.7032 370.279 86.6029 369.283 80.8663C368.092 73.9392 368.807 72.7702 369.543 72.5321C370.279 72.2939 371.707 72.8351 374.803 79.4159C374.933 79.6974 375.063 79.9788 375.193 80.3035C376.35 77.1322 377.34 73.9023 378.158 70.6271C379.219 66.2976 380.323 64.3061 381.449 64.4576C383.375 64.6957 383.18 71.8177 383.072 73.7443C384.458 70.0859 386.124 63.5484 387.986 64.0247C389.848 64.5009 388.895 70.5189 388.657 72.4022C389.458 70.6704 390.216 69.8694 390.93 70.0426C392.467 70.3673 392.077 74.8916 391.709 77.5326C391.365 79.9897 390.822 82.4149 390.086 84.7845C390.952 83.9402 391.926 83.3991 392.575 83.7238C393.225 84.0485 393.268 85.8885 391.709 89.2871C388.7 95.7813 384.09 104.181 380.994 109.701C381.374 110.359 381.574 111.105 381.574 111.865C381.574 112.625 381.374 113.372 380.994 114.03C370.82 134.292 350.493 157.563 324.711 178.756C321.032 191.353 318.019 204.136 315.684 217.05C318.108 219.02 342.873 239.888 336.465 258.591C331.227 273.896 308.475 286.278 268.817 295.392C275.312 331.521 288.062 369.967 288.3 371.85C288.668 375.27 283.689 378.907 275.312 381.397C277.476 399.667 277.303 398.087 277.13 398.541C274.64 405.447 269.445 419.713 250.525 437.225C250.477 437.273 250.417 437.307 250.351 437.325C250.286 437.342 250.217 437.342 250.151 437.325C250.085 437.307 250.025 437.273 249.977 437.225C249.929 437.177 249.894 437.118 249.876 437.052C248.101 431.987 247.711 424.583 248.923 414.431C250.201 402.893 252.149 398.065 250.677 383.908C245.655 383.475 237.515 382.046 236.996 377.175C234.002 349.509 232.938 321.669 233.814 293.855L192.207 355.333C191.831 355.845 191.327 356.25 190.746 356.508C190.166 356.766 189.528 356.869 188.895 356.805C185.908 356.805 181.384 355.052 176.08 351.74C162.853 365.94 163.525 365.269 163.373 365.356C147.704 370.925 130.841 372.254 114.493 369.209C114.412 369.226 114.327 369.217 114.25 369.185C114.173 369.152 114.108 369.097 114.064 369.026C114.019 368.956 113.997 368.874 114 368.79C114.004 368.707 114.032 368.627 114.082 368.56ZM292.803 154.013C292.803 153.558 292.803 152.151 293.106 151.848C297.652 146.674 293.43 142.41 291.46 145.938C290.768 147.172 290.183 147.735 289.599 147.735C289.014 147.735 288.625 147.107 288.516 146.891C285.746 139.422 277.931 136.543 276.524 144.553C276.287 146.035 276.164 147.533 276.156 149.034C276.307 157.13 277.931 161.871 280.983 163.17C284.815 164.815 289.642 160.355 289.642 160.312C289.708 160.254 289.791 160.218 289.879 160.21C289.967 160.202 290.055 160.223 290.13 160.269C290.205 160.315 290.264 160.384 290.297 160.466C290.33 160.548 290.335 160.638 290.313 160.723C290.313 160.94 287.997 167.564 287.954 167.629C288.109 168.848 287.926 170.086 287.426 171.208C286.926 172.33 286.128 173.294 285.118 173.993L284.274 174.556C289.339 173.95 295.097 170.811 301.721 164.966C296.548 165.897 293.106 158.472 292.803 154.013ZM283.299 175.53L284.014 181.786L291.807 173.127C292.023 172.889 291.201 172.911 304.384 174.015L303.172 164.858C295.487 171.807 288.993 175.27 283.299 175.53ZM387.813 64.804C387.813 64.804 386.904 64.9771 385.237 70.0426C384.436 72.5104 383.613 74.6968 382.812 76.5368C382.64 77.9914 382.394 79.4364 382.076 80.8663C383.048 82.2695 383.868 83.7715 384.523 85.3473C386.256 80.6832 387.426 75.8286 388.008 70.8869C388.571 66.1894 388.008 64.8906 387.813 64.804ZM390.908 77.4244C391.58 72.5754 391.038 70.9302 390.757 70.8219C390.476 70.7137 389.675 71.0168 387.921 76.7317C387.164 80.0849 386.181 83.3828 384.977 86.6029C385.654 88.3849 386.134 90.2361 386.406 92.1229C388.62 87.4708 390.137 82.5182 390.908 77.4244V77.4244ZM390.908 88.9408C392.77 84.9577 392.164 84.4598 392.164 84.4598C391.774 84.2649 389.999 85.5421 389.22 87.144C388.311 89.6551 387.467 91.4735 386.471 93.6383C386.211 94.1794 385.691 93.963 385.648 93.6383C385.321 88.3691 383.223 83.365 379.695 79.4376C379.615 79.3629 379.567 79.2594 379.563 79.1498C379.559 79.0402 379.599 78.9335 379.674 78.8531C379.748 78.7727 379.852 78.7253 379.961 78.7212C380.071 78.7172 380.178 78.7568 380.258 78.8315C380.648 79.2303 381.016 79.6493 381.362 80.087C381.919 77.3064 382.216 74.4801 382.25 71.6445C382.25 65.54 381.275 65.1503 381.275 65.1503C381.275 65.1503 380.063 66.0812 378.873 70.7353C377.983 74.3747 376.885 77.9597 375.582 81.4724C377.277 87.4709 378.336 93.631 378.743 99.851C378.743 100.371 377.963 100.479 377.942 99.851C377.942 99.7212 376.903 85.672 374.024 79.6973C370.776 73.03 369.694 73.2031 369.694 73.2031C369.694 73.2031 368.763 73.5928 369.975 80.6065C371.621 90.0664 362.94 102.449 361.641 104.224C364.001 109.398 371.729 114.658 376.989 114.766C381.449 107.319 387.293 96.8421 390.973 88.9408H390.908ZM320.251 191.701L317.134 184.103C317.109 183.896 317.163 183.687 317.286 183.518C340.102 165.811 366.057 140.7 379.392 115.351C373.634 117.667 361.057 109.03 360.364 102.492C344.302 128.469 329.062 143.774 306.917 162.39C306.002 163.179 304.991 163.848 303.908 164.382L305.272 174.491C305.278 174.553 305.271 174.615 305.251 174.673C305.231 174.731 305.197 174.784 305.154 174.828C305.11 174.872 305.057 174.905 304.999 174.925C304.94 174.946 304.878 174.953 304.817 174.946L292.283 173.907L284.014 182.999C283.96 183.058 283.891 183.1 283.813 183.12C283.736 183.141 283.655 183.138 283.579 183.113C283.503 183.087 283.436 183.041 283.387 182.978C283.337 182.916 283.307 182.84 283.299 182.76L282.52 175.833C273.552 181.754 263.899 186.566 253.772 190.164H253.556C243.014 188.475 230.48 184.471 215.24 177.911C211.426 182.968 209.014 188.942 208.248 195.229C221.873 201.667 235.953 207.094 250.374 211.465C253.914 212.541 257.704 212.465 261.197 211.248C266.319 209.518 271.281 207.345 276.026 204.754C280.355 186.982 278.645 194.926 279.165 188.475C279.165 188.366 279.208 188.262 279.285 188.185C279.362 188.107 279.467 188.064 279.576 188.064C279.685 188.064 279.79 188.107 279.867 188.185C279.944 188.262 279.987 188.366 279.987 188.475C279.425 195.338 281.135 202.654 291.98 223.479L314.84 216.985C315.641 211.378 317.914 200.988 320.251 191.701ZM251.434 384.99C252.733 397.372 250.763 404.3 249.659 413.63C259.033 406.636 267.626 398.652 275.29 389.818C273.363 372.889 272.584 366.222 272.584 366.222C264.881 365.864 257.173 366.778 249.768 368.928C249.854 369.837 251.088 381.7 251.434 384.99ZM237.45 375.227C242.732 365.962 277.779 361.719 286.568 369.188C281.286 351.697 277.065 336.5 273.775 322.949L263.254 296.236C263.124 295.89 263.254 295.738 263.557 295.695C285.875 290.37 328.218 279.806 335.599 258.266C341.856 240.018 317.329 219.431 315.078 217.591L292.067 224.258C290.368 229.6 289.201 235.096 288.581 240.667C290.4 239.628 292.196 238.654 293.993 237.701C294.086 237.667 294.188 237.668 294.28 237.703C294.372 237.737 294.449 237.804 294.496 237.891C294.543 237.977 294.558 238.078 294.537 238.174C294.516 238.271 294.462 238.356 294.383 238.416C275.763 248.627 258.156 260.587 241.801 274.134C239.687 275.838 237.959 277.972 236.732 280.394C235.504 282.816 234.804 285.471 234.679 288.183C233.459 317.219 234.386 346.306 237.45 375.206V375.227ZM192.489 353.233L233.619 292.361C233.619 290.954 233.619 289.547 233.792 288.161C233.939 285.32 234.69 282.543 235.997 280.015C237.304 277.488 239.135 275.269 241.368 273.506C255.939 261.495 271.461 250.687 287.78 241.187C288.154 236.895 288.93 232.648 290.097 228.501C268.244 237.324 246.916 247.392 226.215 258.656C222.55 260.609 219.146 263.016 216.084 265.821L155.104 321.563C165.386 320.503 191.969 342.821 192.489 353.212V353.233ZM168.2 358.883L184.652 341.198C179.504 335.467 173.537 330.528 166.945 326.542C155.125 338.903 149.627 345.419 141.596 349.553C139.279 350.744 136.92 352.065 134.582 353.537C145.44 357.061 156.784 358.858 168.2 358.862V358.883Z" fill="#343E48"/>
<path d="M324.624 324.378L335.317 321.607L332.547 310.913C332.518 310.807 332.533 310.693 332.587 310.598C332.642 310.503 332.733 310.433 332.839 310.404C332.945 310.376 333.058 310.39 333.154 310.445C333.249 310.5 333.319 310.59 333.348 310.696L336.118 321.39L346.812 318.619C346.918 318.594 347.031 318.611 347.124 318.668C347.217 318.725 347.284 318.816 347.31 318.922C347.336 319.029 347.319 319.141 347.262 319.234C347.205 319.328 347.113 319.395 347.007 319.42L336.313 322.213L339.084 333.037C339.11 333.143 339.093 333.255 339.036 333.348C338.979 333.442 338.887 333.509 338.781 333.534C338.675 333.56 338.563 333.543 338.469 333.486C338.376 333.429 338.309 333.338 338.283 333.231L335.534 322.559C325.186 325.244 324.883 325.33 324.71 325.33C324.584 325.342 324.458 325.302 324.361 325.221C324.263 325.14 324.202 325.024 324.191 324.897C324.179 324.771 324.218 324.645 324.3 324.548C324.381 324.45 324.497 324.389 324.624 324.378Z" fill="#EF3851"/>
<path d="M138.242 151.091C138.495 153.594 140.065 158.85 145.33 161.854C147.102 162.522 150.95 162.905 152.165 159.101C152.587 157.933 152.722 155.246 149.887 153.844C148.874 153.427 146.95 153.293 145.33 155.096C143.305 157.349 144.028 162.069 147.608 165.609C149.127 167.111 152.317 170.014 159 170.615" stroke="#343E48" stroke-width="5"/>
<path fill-rule="evenodd" clip-rule="evenodd" d="M173.882 125.05C174.918 124.397 174.929 122.87 173.82 122.352C170.32 120.718 166.411 119.805 162.29 119.805C147.375 119.805 135.236 131.768 135.236 146.585C135.236 147.842 135.323 149.079 135.492 150.289C135.726 151.962 137.641 152.659 139.085 151.783V151.783C139.988 151.236 140.508 150.174 140.384 149.126C140.286 148.292 140.236 147.444 140.236 146.585C140.236 134.582 150.083 124.805 162.29 124.805C164.47 124.805 166.574 125.116 168.56 125.697C170.35 126.219 172.305 126.046 173.882 125.05V125.05V125.05ZM182.427 132.609C181.332 133.402 180.995 134.962 181.65 136.145C183.369 139.247 184.345 142.806 184.345 146.585C184.345 158.588 174.497 168.365 162.29 168.365C161.959 168.365 161.63 168.358 161.303 168.344C160.659 168.316 160.059 168.478 159.544 168.865V168.865C157.74 170.22 158.069 173.135 160.319 173.295C160.97 173.342 161.628 173.365 162.29 173.365C177.206 173.365 189.345 161.402 189.345 146.585C189.345 141.717 188.035 137.157 185.746 133.228C185.058 132.047 183.534 131.807 182.427 132.609V132.609Z" fill="#343E48"/>
<path d="M168.619 129.814C170.644 128.98 175.758 127.561 180.01 128.563" stroke="#343E48" stroke-width="5" stroke-linecap="round"/>
<path d="M176.719 118.8C176.658 120.855 177.284 125.596 180.277 128.128" stroke="#343E48" stroke-width="5" stroke-linecap="round"/>
<path d="M174.3 139.707C174.766 139.774 175.083 139.916 175.25 140.132C175.433 140.349 175.525 140.632 175.525 140.982C175.525 142.132 174.908 142.666 173.675 142.582L172.8 142.507C171.816 142.424 170.833 142.357 169.85 142.307C168.883 142.257 167.866 142.232 166.8 142.232H165.675C165.475 144.699 165.266 146.949 165.05 148.982L169.35 148.907C169.966 148.907 170.375 149.016 170.575 149.232C170.791 149.449 170.9 149.741 170.9 150.107C170.9 150.674 170.733 151.124 170.4 151.457C170.066 151.774 169.591 151.932 168.975 151.932H164.7L164.55 153.007C164.2 155.757 163.45 157.716 162.3 158.882C161.166 160.049 159.6 160.632 157.6 160.632C156.466 160.632 155.425 160.391 154.475 159.907C153.525 159.407 152.825 158.807 152.375 158.107C152.191 157.824 152.1 157.482 152.1 157.082C152.1 156.682 152.191 156.332 152.375 156.032C152.575 155.732 152.816 155.582 153.1 155.582C153.3 155.582 153.491 155.649 153.675 155.782C153.875 155.916 154.125 156.174 154.425 156.557C155.225 157.607 156.216 158.132 157.4 158.132C158.35 158.132 159.141 157.749 159.775 156.982C160.425 156.199 160.841 154.974 161.025 153.307L161.175 151.932H159.975C159.591 151.932 159.258 151.824 158.975 151.607C158.708 151.391 158.575 151.082 158.575 150.682C158.575 150.166 158.708 149.774 158.975 149.507C159.241 149.224 159.633 149.082 160.15 149.082C160.616 149.082 161.075 149.074 161.525 149.057C161.725 147.224 161.941 144.999 162.175 142.382C160.375 142.549 159.108 142.841 158.375 143.257C157.641 143.674 157.275 144.291 157.275 145.107C157.275 145.674 157.441 146.216 157.775 146.732C157.875 146.882 157.925 147.032 157.925 147.182C157.925 147.482 157.758 147.749 157.425 147.982C157.091 148.199 156.716 148.307 156.3 148.307C155.85 148.307 155.466 148.174 155.15 147.907C154.95 147.741 154.758 147.399 154.575 146.882C154.391 146.366 154.3 145.791 154.3 145.157C154.3 143.091 155.358 141.591 157.475 140.657C159.608 139.724 162.716 139.257 166.8 139.257C169.633 139.257 172.133 139.407 174.3 139.707Z" fill="#343E48"/>
</svg>
