<svg width="543" height="635" viewBox="0 0 543 635" fill="none" xmlns="http://www.w3.org/2000/svg">
<path d="M339.238 443.367C272.507 381.751 190.438 360.791 157.745 358.013C106.644 351.004 96.5025 302.731 97.8195 279.47C100.662 248.7 147.179 232.058 171.29 241.8C209.84 257.374 227.732 212.47 230.744 191.498C235.184 160.583 278.848 152.42 294.05 154.656C341.412 154.414 385.503 189.503 401.628 207.078C439.999 251.016 451.277 340.57 446.901 383.428C427.173 494.754 366.906 469.773 339.238 443.367Z" fill="#D9D9D9"/>
<path fill-rule="evenodd" clip-rule="evenodd" d="M384.187 175.665C424.52 167.53 452.704 138.563 447.137 110.967C441.571 83.3711 404.362 67.5952 364.029 75.7308C323.696 83.8664 295.513 112.833 301.079 140.429C303.788 153.86 313.992 164.49 328.404 170.928C329.375 178.182 329.546 193.559 322.795 200.493C329.311 197.105 343.229 187.572 346.765 176.547C346.777 176.508 346.79 176.469 346.802 176.431C358.279 178.428 371.068 178.312 384.187 175.665Z" fill="#CFAAFF"/>
<path d="M328.404 170.928L328.899 170.861L328.862 170.585L328.607 170.471L328.404 170.928ZM322.795 200.493L322.437 200.145L323.025 200.937L322.795 200.493ZM346.765 176.547L347.241 176.7L347.241 176.7L346.765 176.547ZM346.802 176.431L346.887 175.938L346.455 175.863L346.324 176.282L346.802 176.431ZM446.647 111.066C449.388 124.655 443.831 138.636 432.516 150.265C421.203 161.892 404.169 171.125 384.088 175.175L384.286 176.156C404.538 172.07 421.762 162.752 433.233 150.963C444.701 139.176 450.453 124.875 447.627 110.868L446.647 111.066ZM364.128 76.2209C384.209 72.1705 403.49 74.0776 418.425 80.41C433.363 86.7435 443.906 97.477 446.647 111.066L447.627 110.868C444.802 96.8614 433.957 85.9089 418.816 79.4893C403.672 73.0686 384.183 71.1556 363.93 75.2407L364.128 76.2209ZM301.569 140.33C298.828 126.741 304.385 112.76 315.7 101.131C327.013 89.5039 344.047 80.2714 364.128 76.2209L363.93 75.2407C343.678 79.3258 326.454 88.6443 314.983 100.433C303.515 112.221 297.763 126.521 300.589 140.528L301.569 140.33ZM328.607 170.471C314.297 164.079 304.237 153.558 301.569 140.33L300.589 140.528C303.339 154.162 313.688 164.902 328.2 171.384L328.607 170.471ZM323.153 200.842C326.646 197.254 328.308 191.539 328.992 185.891C329.677 180.223 329.389 174.522 328.899 170.861L327.908 170.994C328.389 174.588 328.672 180.202 327.999 185.77C327.323 191.358 325.695 196.798 322.437 200.145L323.153 200.842ZM346.289 176.394C344.561 181.78 340.277 186.846 335.566 191.009C330.864 195.164 325.79 198.372 322.564 200.05L323.025 200.937C326.316 199.226 331.459 195.973 336.228 191.758C340.989 187.552 345.432 182.339 347.241 176.7L346.289 176.394ZM346.324 176.282C346.313 176.319 346.301 176.357 346.289 176.394L347.241 176.7C347.254 176.66 347.267 176.619 347.279 176.579L346.324 176.282ZM384.088 175.175C371.027 177.81 358.3 177.924 346.887 175.938L346.716 176.923C358.257 178.932 371.108 178.814 384.286 176.156L384.088 175.175Z" fill="#343E48"/>
<path d="M334.426 122.558L348.469 99.4778L359.911 93.5526C361.729 98.9208 367.425 99.6309 370.046 99.3149C377.689 96.2617 378.298 91.1502 377.647 88.9761L393.569 87.8405L413.985 102.03L403.866 115.18L391.941 107.718C398.748 121.527 399.74 143.179 399.386 152.278C395.993 146.668 370.101 157.132 357.58 163.065C362.288 154.5 357.477 132.645 354.483 122.788L348.885 129.367L334.426 122.558Z" fill="#343E48"/>
<path fill-rule="evenodd" clip-rule="evenodd" d="M334.294 308.187L350.175 319.857C350.736 319.255 351.274 318.603 351.782 317.905C354.237 314.523 355.413 310.801 355.411 307.575C355.408 304.347 354.245 301.774 352.209 300.296C350.172 298.818 347.366 298.508 344.296 299.505C341.228 300.501 338.053 302.772 335.597 306.154C335.113 306.821 334.679 307.501 334.294 308.187ZM332.671 306.995L318.981 296.935L272.793 359.789L321.142 395.318L367.33 332.464L351.796 321.049C352.357 320.434 352.893 319.777 353.4 319.08C358.754 311.706 358.747 302.571 353.384 298.677C348.021 294.784 339.333 297.605 333.979 304.979C333.5 305.639 333.064 306.312 332.671 306.995Z" fill="#B0A7A6"/>
<path d="M336.598 343.656C336.938 343.983 337.112 344.283 337.12 344.556C337.143 344.839 337.051 345.123 336.847 345.407C336.175 346.34 335.363 346.412 334.411 345.624L333.744 345.052C332.995 344.409 332.236 343.78 331.468 343.165C330.712 342.56 329.902 341.945 329.037 341.322L328.124 340.664C326.52 342.549 325.036 344.253 323.671 345.776L327.204 348.228C327.705 348.589 327.973 348.915 328.008 349.208C328.058 349.51 327.975 349.81 327.761 350.108C327.43 350.568 327.031 350.835 326.566 350.911C326.11 350.973 325.633 350.824 325.132 350.464L321.663 347.965L320.913 348.75C319.022 350.776 317.269 351.927 315.654 352.202C314.052 352.486 312.44 352.044 310.817 350.875C309.898 350.212 309.194 349.407 308.705 348.46C308.227 347.499 308.01 346.603 308.054 345.772C308.07 345.435 308.196 345.104 308.429 344.78C308.663 344.455 308.942 344.225 309.266 344.088C309.604 343.962 309.888 343.981 310.118 344.147C310.28 344.264 310.396 344.43 310.467 344.645C310.552 344.87 310.603 345.226 310.623 345.712C310.658 347.032 311.156 348.038 312.116 348.729C312.887 349.284 313.754 349.436 314.716 349.184C315.701 348.928 316.755 348.178 317.878 346.933L318.803 345.905L317.829 345.203C317.518 344.979 317.311 344.697 317.208 344.355C317.118 344.024 317.19 343.695 317.424 343.371C317.726 342.952 318.063 342.712 318.435 342.651C318.817 342.577 319.218 342.691 319.637 342.993C320.016 343.266 320.393 343.527 320.767 343.777C322.001 342.406 323.477 340.727 325.196 338.74C323.638 337.823 322.44 337.32 321.601 337.229C320.763 337.139 320.105 337.425 319.627 338.087C319.296 338.547 319.115 339.084 319.083 339.698C319.077 339.878 319.03 340.029 318.942 340.151C318.767 340.394 318.476 340.513 318.069 340.508C317.672 340.489 317.304 340.358 316.966 340.114C316.601 339.851 316.368 339.519 316.267 339.117C316.202 338.865 316.246 338.476 316.399 337.95C316.552 337.423 316.814 336.903 317.184 336.389C318.392 334.712 320.128 334.114 322.391 334.594C324.667 335.083 327.462 336.521 330.775 338.908C333.074 340.564 335.015 342.146 336.598 343.656Z" fill="#343E48"/>
<path d="M135.727 283.48C137.986 285.998 140.728 289.119 143.61 292.402C132.265 292.811 119.987 305.311 116.807 316.012C113.505 311.434 111.162 308.141 110.443 307.069C112.165 301.168 115.438 295.842 119.899 291.679C124.361 287.516 129.839 284.679 135.727 283.48Z" fill="#B0A7A6"/>
<path d="M247.288 393.9C245.076 398.79 243.224 402.768 242.067 405.069C233.567 406.364 217.762 399.213 211.119 388.646C212.216 386.169 214.009 382.074 216.123 377.252C219.963 385.881 236.286 394.869 247.288 393.9Z" fill="#B0A7A6"/>
<path d="M164.039 325.816C163.627 317.861 163.937 309.873 164.964 301.953C167.424 296.331 172.106 285.172 173.129 282.809C173.913 280.911 174.175 278.837 173.886 276.815C177.996 271.049 183.668 266.639 190.179 264.146C191.566 265.107 193.02 265.962 194.531 266.705C176.249 281.888 170.915 312.836 167.291 346.347C152.016 327.788 132.072 304.738 128.154 299.496C132.438 295.501 137.86 293.034 143.588 292.474L153.66 303.952C156.8 310.036 160.561 317.931 164.039 325.816Z" fill="#B0A7A6"/>
<path d="M211.448 311.149C210.015 314.764 193.358 356.931 190.37 363.572C183.09 380.368 168.071 382.985 153.434 364.96C144.239 353.677 126.455 329.407 116.871 316.051C119.109 309.597 123.038 303.874 128.224 299.517C132.182 304.693 151.986 327.7 167.355 346.387C170.956 312.888 176.307 281.946 194.59 266.762C204.533 271.713 218.799 273.417 224.865 267.893C232.695 276.247 242.243 286.338 250.258 295.755C274.529 324.273 273.096 331.516 269.096 342.572C265.406 352.759 254.534 378.197 247.358 393.922C236.356 394.891 220.038 385.885 216.187 377.233C222.573 362.878 231.578 342.143 232.712 339.361L230.22 337.836C222.853 329.825 216.544 320.855 211.448 311.149Z" fill="#B0A7A6"/>
<path d="M278.019 219.726C278.348 220.041 278.585 220.445 278.703 220.892C278.821 221.34 278.815 221.814 278.687 222.263C278.559 222.712 278.314 223.119 277.977 223.438C277.641 223.757 277.227 223.976 276.78 224.071C275.228 224.51 273.611 224.623 272.025 224.404C269.389 224.017 268.345 221.286 272.715 220.222C274.492 220.42 276.295 220.251 278.019 219.726Z" fill="#B0A7A6"/>
<path d="M279.461 215.344C281.004 216.535 280.232 219.015 278.089 219.747C276.343 220.272 274.516 220.427 272.721 220.204C269.849 219.901 268.448 216.901 273.117 215.616C275.195 216.215 277.416 216.12 279.461 215.344Z" fill="#B0A7A6"/>
<path d="M279.461 215.344C278.3 215.818 277.062 216.046 275.821 216.015C274.58 215.984 273.363 215.695 272.242 215.166C272.782 214.817 273.19 214.289 273.397 213.672C273.626 212.935 273.917 212.001 274.236 210.976C276.296 211.414 278.43 211.407 280.502 210.957C280.805 211.275 281.023 211.668 281.137 212.099C281.251 212.53 281.256 212.986 281.152 213.423C281.048 213.861 280.839 214.266 280.543 214.602C280.247 214.938 279.875 215.193 279.461 215.344Z" fill="#B0A7A6"/>
<path d="M281.447 207.308C282.78 208.374 281.968 210.92 279.554 211.174C277.772 211.38 275.975 211.306 274.224 210.953C274.58 209.628 274.846 208.282 275.021 206.923C276.87 206.454 280.26 206.327 281.447 207.308Z" fill="#B0A7A6"/>
<path d="M265.508 240.039C258.972 239.418 252.578 237.811 246.531 235.271C246.911 234.049 247.292 231.782 247.867 229.26C250.878 215.845 252.777 213.499 255.821 210.425C258.595 207.632 261.647 205.146 264.926 203.009C266.586 202.166 270.863 203.124 272.727 203.468C274.906 203.91 275.262 204.672 275.031 206.887C274.728 209.179 274.174 211.434 273.378 213.607C272.729 215.692 269.635 217.39 270.213 208.284C270.043 210.917 269.245 213.478 267.889 215.742C266.893 219.439 266.763 223.311 267.51 227.039C266.701 228.897 265.936 237.806 265.508 240.039Z" fill="#B0A7A6"/>
<path d="M165.543 286.084C162.284 289.111 160.532 288.467 158.373 286.118C156.756 286.699 155.496 285.892 153.923 284.121C152.457 284.709 151.407 284.086 150.143 282.49C148.155 279.899 148.643 276.305 149.732 273.608C146.049 270.232 143.434 265.805 142.213 260.876C147.336 256.045 156.706 253.739 162.803 254.751C165.286 260.177 169.741 268.367 173.015 274.572C173.637 275.845 173.972 277.249 173.996 278.682C174.02 280.115 173.732 281.541 173.152 282.856C172.21 285.204 163.896 304.459 163.67 304.94C162.287 307.842 158.329 308.442 165.543 286.084Z" fill="#B0A7A6"/>
<path d="M140.793 177.807C145.496 179.272 150.531 176.533 152.04 171.689C153.549 166.845 150.96 161.731 146.257 160.266C141.554 158.801 136.519 161.54 135.01 166.384C133.501 171.228 136.091 176.342 140.793 177.807Z" fill="#6A1BCD"/>
<path d="M91.3544 170.233L81.1802 169.035L82.52 158.589C82.5351 158.434 82.4911 158.281 82.3973 158.16C82.3035 158.04 82.1671 157.962 82.0169 157.943C81.8667 157.925 81.7143 157.966 81.5917 158.06C81.469 158.153 81.3857 158.291 81.3592 158.445L80.0194 168.89L69.8453 167.693C69.7676 167.68 69.6879 167.683 69.611 167.703C69.5341 167.722 69.4616 167.757 69.3978 167.806C69.334 167.854 69.2802 167.916 69.2397 167.986C69.1991 168.056 69.1726 168.133 69.1618 168.213C69.151 168.294 69.156 168.375 69.1767 168.453C69.1973 168.53 69.2331 168.603 69.2819 168.665C69.3307 168.728 69.3915 168.78 69.4607 168.817C69.5299 168.855 69.606 168.878 69.6845 168.885L79.8586 170.082L78.5189 180.528C78.5051 180.608 78.5071 180.69 78.5248 180.768C78.5425 180.847 78.5755 180.92 78.6219 180.985C78.6683 181.049 78.7271 181.104 78.7948 181.144C78.8625 181.184 78.9376 181.21 79.0158 181.22C79.0939 181.23 79.1735 181.223 79.2496 181.201C79.3258 181.178 79.397 181.14 79.459 181.089C79.5209 181.038 79.5724 180.975 79.6104 180.903C79.6483 180.832 79.6719 180.754 79.6797 180.673L81.0195 170.227L91.1936 171.425C91.2713 171.438 91.351 171.434 91.4279 171.415C91.5047 171.395 91.5773 171.36 91.6411 171.312C91.7049 171.263 91.7587 171.202 91.7992 171.132C91.8398 171.062 91.8663 170.984 91.8771 170.904C91.8879 170.824 91.8829 170.742 91.8622 170.665C91.8416 170.587 91.8058 170.515 91.757 170.452C91.7082 170.39 91.6474 170.338 91.5782 170.3C91.509 170.262 91.4329 170.24 91.3544 170.233Z" fill="#6A1BCD"/>
<path d="M304.728 74.607L286.457 72.3655L288.899 53.5882C288.914 53.4334 288.87 53.2796 288.776 53.1592C288.682 53.0387 288.546 52.961 288.396 52.9423C288.246 52.9235 288.093 52.9653 287.971 53.0587C287.848 53.1522 287.765 53.2901 287.738 53.4435L285.226 72.199L266.955 69.9575C266.804 69.9447 266.653 69.9923 266.534 70.0905C266.415 70.1886 266.337 70.3296 266.316 70.4838C266.295 70.6381 266.333 70.7936 266.422 70.9177C266.511 71.0418 266.645 71.1249 266.794 71.1495L285.065 73.391L282.571 92.152C282.557 92.2318 282.559 92.3134 282.577 92.3918C282.595 92.4703 282.628 92.544 282.674 92.6086C282.721 92.6732 282.779 92.7273 282.847 92.7676C282.915 92.808 282.99 92.8339 283.068 92.8436C283.146 92.8534 283.226 92.8468 283.302 92.8244C283.378 92.8019 283.449 92.764 283.511 92.713C283.573 92.6619 283.625 92.5987 283.663 92.5272C283.701 92.4557 283.724 92.3773 283.732 92.2967L286.226 73.5358L304.492 75.7953C304.568 75.8098 304.646 75.8089 304.722 75.7925C304.798 75.7761 304.871 75.7446 304.935 75.6998C305 75.6549 305.056 75.5976 305.099 75.5311C305.142 75.4646 305.173 75.3902 305.188 75.3122C305.204 75.2342 305.204 75.154 305.189 75.0764C305.175 74.9987 305.145 74.925 305.102 74.8596C305.06 74.7941 305.005 74.7381 304.941 74.6948C304.876 74.6514 304.804 74.6216 304.728 74.607Z" fill="#6A1BCD"/>
<path d="M277.546 226.774C277.4 225.891 277.339 224.994 277.366 224.096C277.37 223.935 277.312 223.78 277.205 223.666C277.097 223.551 276.948 223.485 276.791 223.483C276.634 223.481 276.482 223.544 276.368 223.656C276.254 223.768 276.188 223.922 276.183 224.082C276.176 224.133 276.161 224.181 276.139 224.226C269.593 225.697 267.327 221.481 272.68 220.211C269.808 219.908 268.407 216.909 273.076 215.623C272.766 215.51 272.473 215.353 272.207 215.155C271.124 215.744 269.808 214.624 270.196 208.338C270.167 211.288 269.106 214.147 267.207 216.397C266.275 220.145 266.247 224.055 267.124 227.786C267.154 227.898 267.216 227.998 267.301 228.073C267.386 228.149 267.492 228.197 267.604 228.212C270.786 228.451 273.993 228.187 277.113 227.428C277.251 227.393 277.372 227.306 277.452 227.185C277.532 227.064 277.566 226.918 277.546 226.774Z" fill="#6A1BCD"/>
<path d="M299.091 226.802C299.091 226.802 307.445 217.989 308.93 212.793C316.599 209.682 317.904 202.419 311.873 196.893C312.559 189.221 312.12 180.862 308.798 180.281C307.601 180.066 308.624 179.734 287.364 192.492L267.02 188.855C265.672 188.613 264.28 188.732 262.978 189.199C261.676 189.666 260.507 190.466 259.584 191.523C258.661 192.58 258.015 193.857 257.707 195.232C257.399 196.608 257.441 198.036 257.827 199.378L247.513 198.137C247.358 198.12 247.202 198.167 247.08 198.268C246.957 198.368 246.877 198.514 246.858 198.672C246.839 198.831 246.882 198.99 246.978 199.114C247.074 199.238 247.215 199.318 247.37 199.334L258.259 200.755C258.73 201.734 259.407 202.592 260.242 203.267C261.076 203.943 262.049 204.42 263.09 204.665C263.237 204.706 263.394 204.686 263.528 204.61C263.662 204.534 263.764 204.408 263.81 204.259C263.911 203.935 263.709 203.537 263.413 203.504C255.238 201.174 258.473 188.638 266.756 190.133L267.227 190.28C264.696 194.091 263.72 198.747 264.512 203.235C264.536 203.353 264.596 203.46 264.681 203.542C264.767 203.624 264.876 203.677 264.992 203.695C265.109 203.712 265.229 203.692 265.336 203.639C265.443 203.585 265.532 203.5 265.592 203.394C267.953 203.23 270.319 203.46 272.595 204.077C274.576 204.478 274.641 205.129 274.613 206.264C274.587 207.024 274.456 207.2 274.696 207.413C274.745 207.457 274.803 207.49 274.866 207.51C274.929 207.529 274.996 207.535 275.062 207.527C276.948 207.022 278.924 207.052 280.778 207.612C280.802 207.729 280.859 207.835 280.942 207.917C281.026 208 281.132 208.054 281.247 208.074L284.296 208.609L297.95 225.796L277.404 380.116C277.253 380.103 254.112 377.327 253.993 377.425C253.874 377.523 253.796 377.664 253.775 377.818C253.754 377.972 253.792 378.128 253.882 378.252C253.971 378.376 254.104 378.459 254.253 378.484C279.466 381.488 278.269 381.273 278.269 381.273L299.091 226.802ZM314.374 205.578C313.498 210.234 308.205 211.74 308.062 211.892C304.806 212.967 301.362 213.245 298.009 212.704C298.485 206.059 299.706 199.48 301.647 193.096C309.643 194.956 315.326 200.433 314.374 205.578ZM285.212 207.574C283.499 204.162 284.956 196.414 287.794 193.631L304.297 183.67C297.799 194.204 296.646 213.699 296.727 213.192C296.696 213.24 296.678 213.296 296.677 213.353C296.497 216.448 296.675 219.548 297.208 222.588L285.212 207.574Z" fill="#6A1BCD"/>
<path d="M170.632 278.226C167.211 276.722 163.703 275.425 160.127 274.343C159.979 274.296 159.856 274.192 159.785 274.051C159.714 273.911 159.7 273.746 159.748 273.593C159.795 273.441 159.9 273.313 160.038 273.238C160.176 273.163 160.337 273.146 160.485 273.192C164.091 274.283 167.628 275.588 171.078 277.103C171.222 277.161 171.337 277.276 171.397 277.422C171.458 277.569 171.458 277.735 171.399 277.884C171.34 278.032 171.226 278.152 171.082 278.216C170.939 278.281 170.777 278.284 170.632 278.226Z" fill="#343E48"/>
<path d="M193.357 198.577C205.513 197.592 210.703 189.963 215.604 181.849C210.223 177.984 214.755 172.653 217.052 175.971C219.35 179.289 219.224 175.76 219.963 172.403C224.168 172.496 228.342 173.075 232.404 174.129C232.568 192.653 228.537 203.996 216.381 190.292C216.551 192.695 217.167 195.035 218.196 197.186C217.738 199.613 217.893 202.108 218.646 204.435C219.399 206.761 220.726 208.841 222.499 210.474L223.913 212.078C222.162 217.239 219.68 222.12 216.549 226.562C211.208 218.451 200.218 205.249 191.295 198.743L193.357 198.577Z" fill="#B0A7A6"/>
<path d="M242.102 405.632C242.197 405.619 242.289 405.582 242.367 405.524C242.446 405.465 242.509 405.388 242.55 405.298C247.548 395.401 264.807 355.727 269.509 342.721C273.671 331.143 274.696 323.675 251.135 295.95C255.56 294.036 258.699 286.477 273.162 238.637C273.889 236.301 269.45 234.268 266.958 233.235C267.678 227.545 267.958 228.243 267.592 228.188C267.226 228.134 267.04 227.563 266.919 227.032C266.072 229.075 265.463 236.436 264.991 239.365C258.889 238.716 252.917 237.214 247.24 234.9C247.887 232.085 248.836 227.196 250.059 222.963C252.263 215.271 253.365 213.702 256.254 210.816C258.952 208.053 261.952 205.619 265.194 203.566C266.675 202.864 270.068 203.586 272.671 204.14C274.617 204.53 274.583 205.13 274.56 206.129C274.307 208.641 273.755 211.118 272.914 213.502C272.673 214.275 272.07 214.797 271.78 214.746C271.489 214.695 270.592 213.212 270.887 208.395C270.899 208.234 270.848 208.076 270.745 207.955C270.643 207.835 270.497 207.761 270.34 207.752C270.184 207.742 270.028 207.797 269.909 207.904C269.789 208.011 269.715 208.161 269.703 208.322C269.143 214.24 266.949 217.716 262.975 218.982C262.826 219.03 262.7 219.136 262.626 219.277C262.551 219.419 262.534 219.584 262.578 219.736C262.622 219.888 262.723 220.015 262.86 220.089C262.997 220.163 263.157 220.178 263.307 220.13C264.85 219.65 266.257 218.78 267.397 217.602C268.537 216.423 269.374 214.974 269.829 213.389C270.08 214.67 270.473 215.561 271.136 215.767C268.831 217.021 269.057 219.063 270.86 220.216C268.301 221.548 268.81 224.033 271.235 224.789C273.14 225.247 275.136 225.19 277.03 224.622C277.501 224.506 277.942 224.28 278.316 223.961C278.691 223.642 278.99 223.24 279.189 222.786C279.388 222.331 279.482 221.838 279.463 221.344C279.445 220.849 279.314 220.368 279.082 219.938C279.482 219.754 279.839 219.485 280.131 219.149C280.423 218.813 280.643 218.419 280.776 217.992C280.909 217.565 280.952 217.115 280.903 216.673C280.853 216.231 280.711 215.806 280.487 215.427C281.166 214.97 281.653 214.267 281.846 213.462C282.04 212.657 281.927 211.811 281.529 211.099C281.97 210.827 282.323 210.428 282.544 209.953C282.765 209.478 282.843 208.949 282.77 208.433C282.696 207.916 282.474 207.437 282.131 207.056C281.788 206.675 281.34 206.409 280.845 206.292C279.199 205.899 277.486 205.855 275.812 206.164C275.846 204.518 275.417 203.438 272.983 202.956C270.037 202.334 266.714 201.634 264.892 202.506C261.515 204.616 258.392 207.132 255.59 209.998C252.254 213.336 250.446 216.065 247.588 228.621C244.688 228.407 241.371 228.853 240.923 230.783C240.889 230.891 240.973 230.622 240.026 237.227C237.362 229.108 233.153 221.633 227.64 215.23C228.669 215.027 229.628 214.54 230.415 213.822C231.202 213.105 231.786 212.185 232.105 211.16C233.042 212.012 234.197 212.574 235.44 212.784C236.682 212.994 237.964 212.843 239.139 212.348C240.314 211.853 241.336 211.034 242.09 209.983C242.844 208.932 243.301 207.692 243.407 206.4C248.705 207.4 251.734 201.976 250.207 197.537C251.12 197.567 252.026 197.325 252.816 196.843C253.606 196.36 254.248 195.656 254.663 194.815C255.079 193.975 255.251 193.033 255.158 192.104C255.066 191.174 254.713 190.296 254.142 189.575C255.033 189.471 255.886 189.135 256.621 188.6C257.357 188.065 257.949 187.348 258.342 186.518C258.735 185.687 258.915 184.771 258.866 183.857C258.817 182.943 258.541 182.06 258.062 181.294C263.238 180.225 263.665 173.753 260.584 170.25C264.6 168.603 265.426 162.078 261.103 160.041C261.956 159.279 262.582 158.285 262.906 157.178C263.23 156.071 263.239 154.897 262.931 153.796C262.622 152.695 262.01 151.713 261.168 150.967C260.325 150.221 259.287 149.742 258.176 149.587C260.049 144.927 257.708 140.767 252.187 140.979C252.454 139.84 252.419 138.654 252.085 137.545C251.752 136.435 251.132 135.443 250.291 134.671C249.45 133.899 248.418 133.376 247.303 133.158C246.188 132.939 245.032 133.031 243.954 133.426C243.771 127.869 238.778 124.48 232.906 127.599C232.492 122.167 224.992 119.515 221.73 123.901C219.038 118.962 211.405 118.95 209.231 123.714C205.491 118.33 197.849 121.233 195.806 126.807C191.379 123.259 184.73 128.384 184.728 133.983C178.224 133.415 174.663 139.069 177.059 144.468C170.952 145.267 169.435 151.182 172.261 155.63C166.953 157.92 166.092 164.493 170.751 167.542C169.727 168.441 168.946 169.596 168.487 170.892C168.027 172.187 167.905 173.578 168.132 174.925C168.359 176.272 168.928 177.528 169.781 178.569C170.635 179.611 171.743 180.4 172.996 180.859C169.134 185.393 171.494 191.826 177.055 191.981C176.476 193.071 176.202 194.299 176.261 195.529C176.321 196.759 176.712 197.942 177.392 198.947C165.199 199.683 152.84 200.644 142.394 203.699C127.245 208.147 118.865 216.617 124.483 231.517C128.841 243.028 131.99 251.6 139.253 266.874C140.135 269.515 143.265 270.095 146.035 270.051C146.968 271.387 148.034 272.618 149.217 273.724C148.542 275.175 148.245 276.776 148.357 278.367C148.47 279.958 148.986 281.485 149.856 282.795C150.242 283.514 150.837 284.089 151.56 284.441C152.283 284.793 153.099 284.906 153.895 284.763C154.383 285.483 155.058 286.047 155.845 286.393C156.632 286.739 157.502 286.854 158.356 286.724C160.303 288.77 162.112 289.353 164.575 287.715C163.534 291.058 158.915 305.884 162.039 306.857C162.719 307.069 163.508 306.566 164.117 305.533C163.856 308.153 163.666 310.913 163.57 313.801C156.272 305.83 136.737 282.572 136.048 282.693C135.36 282.814 133.973 283.21 132.95 283.483C130.798 280.131 129.013 275.967 128.178 275.943C114.902 275.731 83.5233 286.993 75.6225 294.843C75.5536 294.911 75.5019 294.996 75.4716 295.089C75.4414 295.182 75.4336 295.281 75.449 295.377C75.4643 295.473 75.5023 295.563 75.5596 295.64C75.617 295.717 75.692 295.778 75.7781 295.818C90.0188 302.58 101.938 300.142 111.999 301.581C111.176 303.281 110.497 305.048 109.971 306.863C109.911 306.961 109.878 307.073 109.876 307.187C109.875 307.301 109.904 307.413 109.96 307.511C113.29 312.491 140.872 350.656 152.964 365.424C167.56 383.397 183.218 381.493 190.907 363.877C193.779 357.299 200.858 339.552 207.016 324.023C207.016 324.023 227.34 336.88 231.962 339.68C229.318 345.894 215.526 377.263 215.515 377.299C210.183 389.439 210.424 388.666 210.654 389.034C211.334 390.105 212.083 391.129 212.896 392.098C209.037 397.481 202.903 401.012 203.067 402.206C204.806 415.366 219.844 440.83 229.12 451.606C229.193 451.684 229.284 451.74 229.385 451.77C229.486 451.8 229.593 451.802 229.696 451.776C229.798 451.75 229.893 451.698 229.971 451.623C230.048 451.549 230.106 451.455 230.138 451.351C235.692 430.941 226.75 416.878 231.509 404.304C234.898 405.502 238.507 405.954 242.102 405.632ZM276.645 223.398C275.171 223.827 273.63 223.938 272.122 223.724C271.002 223.572 270.444 222.965 270.34 222.44C270.236 221.914 270.947 221.229 272.773 220.773C274.497 220.979 276.249 220.857 277.94 220.41C278.128 220.674 278.244 220.985 278.277 221.312C278.31 221.638 278.258 221.97 278.127 222.272C277.996 222.575 277.79 222.838 277.53 223.036C277.27 223.233 276.965 223.358 276.645 223.398ZM278.737 214.902C276.98 215.416 275.128 215.439 273.376 214.967C274.02 213.942 274.466 212.802 274.69 211.61C276.585 211.945 278.528 211.943 280.434 211.606C281.158 212.659 280.604 214.439 278.715 214.974L278.737 214.902ZM280.445 207.39C282.312 207.972 281.462 210.27 279.477 210.499C277.973 210.685 276.455 210.657 274.966 210.415C275.229 209.406 275.427 208.381 275.558 207.347C277.174 207.007 278.837 207.047 280.423 207.462L280.445 207.39ZM273.192 216.171C275.208 216.683 277.333 216.608 279.328 215.954C279.483 216.114 279.595 216.313 279.654 216.531C279.714 216.749 279.718 216.98 279.667 217.202C279.379 218.986 277.256 219.35 275.49 219.549C273.313 219.778 270.767 219.595 270.692 218.054C270.628 217.581 271.252 216.809 273.17 216.243L273.192 216.171ZM271.53 239.943C270.433 243.465 269.402 246.772 268.44 249.863C262.783 253.641 246.939 249.632 239.966 243.931C240.484 240.366 241.142 235.978 241.485 232.91C245.424 236.858 264.934 242.62 271.577 240.037L271.53 239.943ZM216.112 182.185C216.19 182.055 216.217 181.9 216.188 181.753C216.16 181.605 216.078 181.475 215.959 181.387C211.39 178.111 214.796 173.75 216.575 176.335C217.153 177.185 217.852 178.014 218.655 177.831C219.835 177.548 219.928 175.526 220.434 173.042C224.286 173.095 228.114 173.587 231.846 174.507C231.92 192.274 228.465 202.751 216.84 189.804C216.759 189.714 216.652 189.651 216.534 189.626C216.415 189.601 216.292 189.614 216.18 189.663C216.068 189.713 215.973 189.796 215.909 189.902C215.844 190.008 215.813 190.131 215.819 190.255C215.989 192.683 216.595 195.05 217.606 197.239C216.483 203.671 218.855 207.486 223.237 212.222C221.602 216.938 219.363 221.419 216.579 225.546C209.897 215.719 201.935 206.885 192.907 199.285C204.645 198.288 209.919 192.42 216.112 182.185ZM134.521 254.044C130.704 245.284 128.498 239.274 125.412 231.116C121.113 219.722 124.503 210.191 142.518 204.9C156.962 200.686 175.247 200.487 191.111 199.336C199.695 205.638 210.348 218.203 216.083 226.831C216.133 226.909 216.201 226.974 216.28 227.02C216.36 227.066 216.45 227.092 216.542 227.096C216.634 227.099 216.726 227.081 216.81 227.041C216.895 227.002 216.969 226.943 217.028 226.869C220.028 222.655 222.429 218.031 224.157 213.14C231.305 220.64 236.566 229.817 239.499 239.902C238.334 247.819 236.08 263.166 235.607 267.572C235.599 267.651 235.606 267.731 235.628 267.807C235.65 267.882 235.686 267.953 235.734 268.014C235.783 268.075 235.843 268.125 235.911 268.162C235.979 268.199 236.053 268.221 236.13 268.228C236.207 268.235 236.285 268.227 236.359 268.203C236.434 268.18 236.503 268.141 236.563 268.091C236.624 268.04 236.674 267.978 236.711 267.907C236.748 267.837 236.771 267.76 236.779 267.681C237.112 264.157 238.579 254.224 239.912 245.334C246.371 250.224 260.987 254.738 268.093 251.53C256.823 288.199 254.135 293.631 250.394 294.95C244.769 288.427 237.927 280.834 229.452 271.846C228.881 266.655 228.591 261.431 228.584 256.197C233.716 234.315 230.31 228.167 227.004 222.189L226.632 221.541C226.6 221.463 226.553 221.394 226.494 221.337C226.434 221.28 226.363 221.237 226.286 221.21C226.208 221.184 226.126 221.174 226.044 221.182C225.962 221.19 225.883 221.216 225.81 221.257C225.738 221.298 225.675 221.355 225.625 221.422C225.575 221.49 225.539 221.567 225.52 221.649C225.501 221.731 225.498 221.816 225.513 221.899C225.528 221.981 225.56 222.06 225.606 222.128C229.072 228.393 230.863 232.598 229.696 243.413C228.607 251.537 226.838 259.561 224.407 267.396C217.216 273.889 199.377 269.89 190.592 263.743C187.656 256.637 183.485 247.413 179.982 240.347C182.763 237.834 185.413 235.171 187.922 232.372C187.995 232.286 188.043 232.182 188.061 232.071C188.08 231.96 188.068 231.846 188.026 231.743C187.985 231.64 187.915 231.551 187.826 231.487C187.737 231.422 187.632 231.385 187.522 231.38C181.098 231.232 162.783 231.283 158.072 231.472C156.853 228.628 155.759 226.178 154.94 224.444C154.87 224.302 154.747 224.195 154.599 224.147C154.451 224.099 154.289 224.113 154.149 224.187C154.009 224.262 153.903 224.389 153.853 224.542C153.804 224.695 153.816 224.86 153.886 225.002C155.791 229.026 159.254 237.203 162.327 244.666C152.762 240.346 137.787 246.939 134.521 254.044ZM169.038 257.719C166.036 250.396 162.107 240.95 158.636 232.673C161.574 232.583 168.245 232.551 174.499 232.508C180.041 242.647 185.014 253.108 189.393 263.842C183.392 266.25 178.12 270.279 174.144 275.495C173.706 274.196 173.166 273.594 167.6 262.949C168.033 262.703 168.413 262.371 168.72 261.974C169.028 261.576 169.255 261.121 169.388 260.635C169.522 260.149 169.559 259.642 169.498 259.144C169.437 258.646 169.279 258.167 169.033 257.737L169.038 257.719ZM141.804 260.591C140.662 261.614 139.77 262.898 139.202 264.335C137.715 261.243 136.393 258.34 135.234 255.627C136.972 248.696 153.521 240.799 163.141 246.418L166.939 255.487C165.79 254.832 164.536 254.388 163.232 254.175C163.12 254.082 162.976 254.037 162.831 254.05C159.152 253.639 155.419 253.982 151.847 255.059C148.275 256.136 144.935 257.925 142.021 260.323C141.931 260.395 141.857 260.487 141.804 260.591ZM163.134 304.695C162.966 305.153 162.662 305.549 162.265 305.824C162.265 305.824 160.335 304.276 166.097 286.454C167.261 285.304 168.347 284.075 169.349 282.775C169.431 282.651 169.466 282.5 169.446 282.352C169.426 282.205 169.353 282.071 169.241 281.978C169.13 281.884 168.987 281.836 168.842 281.845C168.696 281.853 168.558 281.917 168.454 282.023C167.024 283.786 164.027 287.446 161.86 287.52C161.389 287.504 160.927 287.387 160.504 287.178C160.082 286.968 159.708 286.67 159.407 286.302C161.488 284.895 163.328 283.142 164.85 281.117C164.952 280.995 165.003 280.837 164.991 280.678C164.98 280.519 164.907 280.372 164.789 280.27C164.671 280.168 164.517 280.119 164.362 280.133C164.207 280.148 164.062 280.225 163.961 280.347C160.867 284.135 158.93 285.681 157.499 285.728C157.007 285.683 156.531 285.536 156.099 285.297C155.667 285.057 155.288 284.729 154.986 284.334C156.995 282.907 158.811 281.211 160.384 279.293C160.485 279.173 160.537 279.019 160.529 278.863C160.521 278.706 160.453 278.561 160.341 278.456C160.229 278.352 160.081 278.297 159.928 278.304C159.775 278.311 159.63 278.378 159.524 278.492C158.144 280.034 154.876 283.826 153.032 283.784C152.325 283.781 151.619 283.344 150.748 282.146C150.059 281.053 149.642 279.801 149.535 278.496C149.428 277.192 149.633 275.875 150.132 274.66C151.183 275.536 152.315 276.304 153.513 276.955C153.474 277.081 152.673 277.994 152.599 278.109C152.546 278.172 152.507 278.244 152.482 278.322C152.458 278.401 152.45 278.483 152.457 278.564C152.465 278.645 152.489 278.723 152.527 278.794C152.565 278.865 152.618 278.927 152.681 278.976C152.743 279.025 152.816 279.06 152.893 279.08C152.97 279.099 153.05 279.102 153.129 279.088C153.208 279.075 153.283 279.045 153.351 279.001C153.418 278.956 153.477 278.898 153.522 278.831C153.785 278.479 155.587 276.319 156.038 275.671C156.129 275.54 156.167 275.378 156.143 275.221C156.118 275.063 156.033 274.924 155.907 274.832C155.781 274.74 155.623 274.704 155.469 274.732C155.315 274.76 155.177 274.849 155.085 274.98C155.018 275.196 154.634 275.569 154.285 276.012C151.533 274.438 149.125 272.31 147.202 269.755C145.28 267.199 143.882 264.266 143.091 261.13C148.678 256.719 155.677 254.661 162.625 255.386C164.039 258.468 166.372 262.96 166.46 263.106C172.69 275.062 173.049 275.016 173.428 276.869C173.785 278.787 173.545 280.78 172.744 282.571C171.432 285.612 164.208 302.289 163.11 304.648L163.134 304.695ZM153.265 304.361C155.35 308.48 159.37 316.653 163.484 325.998C163.537 327.118 163.59 328.239 163.655 329.383C163.664 329.543 163.734 329.691 163.85 329.796C163.967 329.9 164.12 329.953 164.275 329.941C164.431 329.929 164.577 329.855 164.682 329.734C164.786 329.613 164.839 329.455 164.831 329.296C164.219 320.261 164.485 311.17 165.627 302.159C168.092 296.519 172.851 285.483 173.792 283.016C174.587 281.101 174.874 279.013 174.624 276.966C178.589 271.478 184.006 267.261 190.215 264.828C191.296 265.563 192.414 266.24 193.565 266.857C175.382 282.643 170.37 313.908 166.961 344.884C159.812 336.19 131.393 302.555 129.07 299.564C133.126 295.918 138.171 293.643 143.501 293.058L153.265 304.361ZM135.526 284.186L142.382 291.98C131.591 293.193 120.272 304.335 116.584 314.759C113.829 310.944 111.851 308.139 111.073 307.01C112.783 301.325 115.958 296.196 120.26 292.169C124.562 288.142 129.829 285.367 135.502 284.14L135.526 284.186ZM233.26 339.631C233.311 339.495 233.314 339.346 233.269 339.209C233.224 339.073 233.134 338.958 233.014 338.884L230.475 337.324C223.296 329.444 217.127 320.653 212.114 311.159C214.331 305.58 216.107 301.106 217.01 298.884C217.071 298.735 217.073 298.569 217.015 298.422C216.957 298.274 216.844 298.157 216.7 298.097C216.556 298.037 216.394 298.038 216.249 298.1C216.104 298.162 215.988 298.28 215.927 298.428C214.511 301.93 193.17 355.749 189.818 363.439C182.883 379.555 168.42 382.601 153.865 364.68C144.54 353.199 127.033 329.331 117.438 316.011C119.58 309.984 123.233 304.619 128.025 300.461C132.623 306.408 152.01 328.851 166.804 346.866C166.876 346.957 166.974 347.023 167.084 347.057C167.195 347.091 167.313 347.091 167.424 347.056C167.535 347.021 167.634 346.953 167.709 346.861C167.784 346.769 167.83 346.657 167.843 346.539C171.253 315.13 176.095 283.181 194.569 267.564C202.88 271.612 217.641 274.613 224.695 268.806C271.498 318.026 273.833 327.487 268.422 342.461C264.874 352.318 254.075 377.581 246.912 393.448C236.527 394.156 220.72 385.723 216.762 377.353C220.238 369.327 231.937 342.708 233.236 339.584L233.26 339.631ZM211.825 388.531C212.825 386.24 214.363 382.717 216.184 378.592C220.873 387.012 235.788 394.931 246.379 394.544C244.461 398.796 242.824 402.269 241.724 404.45C233.342 405.486 218.205 398.405 211.825 388.531Z" fill="#343E48"/>
<path d="M34.0024 358.564C35.2645 361.493 39.1551 367.251 46.5986 368.885C48.972 369.02 53.7171 368.025 53.7105 362.966C53.7669 361.395 52.8983 358.097 48.9729 357.478C47.603 357.357 45.2528 357.925 44.0077 360.717C42.4514 364.207 45.1254 369.638 50.7604 372.559C53.1512 373.798 58.0758 376.098 66.292 374.29" stroke="#6A1BCD" stroke-width="5"/>
<path fill-rule="evenodd" clip-rule="evenodd" d="M66.6093 313.585C67.3849 312.655 66.9253 311.22 65.7273 311.048C60.9208 310.357 55.8876 310.711 50.9487 312.278C33.4273 317.836 23.7291 336.545 29.2872 354.067C29.8203 355.748 30.4745 357.356 31.2369 358.886C31.9962 360.41 34.0507 360.506 35.1599 359.215C35.8447 358.418 35.9998 357.258 35.5437 356.311C34.9665 355.113 34.467 353.86 34.0532 352.555C29.33 337.666 37.5713 321.767 52.4606 317.044C55.5352 316.068 58.6528 315.646 61.7062 315.721C63.5778 315.766 65.4096 315.022 66.6093 313.585ZM79.6867 319.522C78.8909 320.608 79.054 322.175 80.0509 323.081C83.621 326.323 86.4087 330.523 87.972 335.451C92.6951 350.34 84.4538 366.239 69.5645 370.962C68.8461 371.19 68.1253 371.388 67.4035 371.556C66.7702 371.704 66.2271 372.041 65.8429 372.566C64.5154 374.379 65.7482 377.029 67.9455 376.559C68.9913 376.335 70.0359 376.058 71.0764 375.728C88.5978 370.17 98.296 351.461 92.7379 333.939C90.8506 327.99 87.447 322.942 83.0885 319.088C82.0537 318.173 80.503 318.407 79.6867 319.522Z" fill="#6A1BCD"/>
<path d="M62.146 321.337C64.2461 319.561 69.8128 315.908 75.2786 315.506" stroke="#6A1BCD" stroke-width="5" stroke-linecap="round"/>
<path d="M67.6036 304.956C68.3182 307.462 70.8841 312.955 75.4308 314.879" stroke="#6A1BCD" stroke-width="5" stroke-linecap="round"/>
<path d="M69.4785 329.891C69.9434 329.813 70.2881 329.852 70.5125 330.009C70.7528 330.16 70.9258 330.402 71.0316 330.736C71.3794 331.832 70.9528 332.527 69.752 332.82L68.8953 333.013C67.9328 333.231 66.9753 333.465 66.0229 333.715C65.0864 333.959 64.1097 334.243 63.093 334.565L62.0207 334.906C62.5759 337.317 63.0576 339.525 63.4659 341.529L67.542 340.157C68.1298 339.97 68.5517 339.95 68.8079 340.096C69.0799 340.237 69.2714 340.483 69.3822 340.832C69.5536 341.372 69.5308 341.851 69.3138 342.27C69.0919 342.673 68.687 342.967 68.0992 343.154L64.0243 344.446L64.2063 345.516C64.7042 348.243 64.5815 350.337 63.8381 351.797C63.1106 353.251 61.7936 354.281 59.8872 354.886C58.8069 355.229 57.741 355.313 56.6893 355.14C55.6326 354.95 54.7839 354.59 54.1433 354.059C53.8829 353.844 53.6922 353.546 53.5713 353.165C53.4503 352.784 53.4319 352.422 53.5159 352.081C53.6158 351.735 53.8008 351.519 54.0709 351.433C54.2615 351.372 54.4644 351.378 54.6795 351.45C54.9104 351.516 55.2268 351.687 55.6287 351.962C56.7087 352.721 57.8127 352.921 58.9407 352.563C59.8462 352.276 60.4849 351.671 60.8568 350.749C61.2395 349.806 61.2663 348.512 60.9371 346.868L60.6643 345.512L59.5205 345.875C59.1551 345.991 58.8046 345.988 58.469 345.868C58.1493 345.742 57.929 345.488 57.808 345.107C57.6518 344.614 57.6605 344.201 57.834 343.866C58.0025 343.515 58.333 343.262 58.8255 343.105C59.2703 342.964 59.7047 342.818 60.1286 342.666C59.7649 340.858 59.2986 338.672 58.7299 336.107C57.0645 336.81 55.9453 337.471 55.3723 338.09C54.7993 338.709 54.6362 339.407 54.8832 340.186C55.0545 340.726 55.3772 341.192 55.8511 341.584C55.9918 341.696 56.0848 341.824 56.1302 341.967C56.2209 342.253 56.1426 342.558 55.8955 342.881C55.6432 343.188 55.3186 343.405 54.9214 343.531C54.4925 343.667 54.0867 343.656 53.7043 343.497C53.4632 343.399 53.1772 343.131 52.8463 342.694C52.5153 342.257 52.254 341.737 52.0625 341.133C51.4377 339.163 51.9929 337.413 53.7283 335.884C55.4795 334.349 58.3013 332.964 62.1935 331.73C64.8942 330.873 67.3225 330.26 69.4785 329.891Z" fill="#6A1BCD"/>
<path d="M384.333 485.226C384.453 482.454 385.164 479.74 386.419 477.264C387.673 474.789 389.442 472.611 391.606 470.874C406.232 458.81 421.812 447.951 438.192 438.403C438.778 432.476 439.99 426.628 441.807 420.955L465.229 414.245C465.229 414.245 492.743 435.892 486.054 455.505C482.352 466.328 467.719 480.81 418.341 492.154C423.281 517.823 429.699 543.185 437.564 568.114C435.399 564.023 424.575 561.62 411.803 563.049C397.862 564.672 387.039 569.694 387.493 574.414L387.342 574.608C384.078 544.933 383.073 515.054 384.333 485.226Z" fill="#B0A7A6"/>
<path d="M376.215 455.353C419.51 432.212 439.902 425.48 440.681 424.895C439.392 429.33 438.558 433.885 438.191 438.49C421.811 448.037 406.232 458.896 391.606 470.961C389.442 472.697 387.673 474.876 386.419 477.351C385.164 479.826 384.453 482.541 384.333 485.313C384.333 486.742 384.203 488.17 384.16 489.642L341.969 551.987C343.896 548.437 337.639 538.998 327.4 530.339C317.161 521.68 307.03 517.156 303.718 519.516L365.911 462.691C369.018 459.816 372.481 457.349 376.215 455.353Z" fill="#B0A7A6"/>
<path d="M338.787 379.847C339.019 376.398 339.97 373.035 341.579 369.976C341.619 369.928 341.647 369.873 341.662 369.813C341.676 369.754 341.678 369.691 341.665 369.631C341.653 369.571 341.627 369.514 341.59 369.465C341.553 369.416 341.506 369.376 341.451 369.348C341.396 369.32 341.336 369.304 341.275 369.302C341.213 369.301 341.152 369.313 341.096 369.338C341.04 369.363 340.99 369.4 340.95 369.447C340.91 369.493 340.881 369.548 340.865 369.608C339.189 372.758 338.186 376.223 337.921 379.782C337.917 379.839 337.924 379.896 337.942 379.95C337.959 380.004 337.988 380.054 338.025 380.098C338.062 380.141 338.107 380.176 338.158 380.202C338.209 380.228 338.265 380.243 338.322 380.247C338.378 380.252 338.436 380.245 338.49 380.227C338.544 380.209 338.594 380.181 338.637 380.144C338.68 380.106 338.716 380.061 338.742 380.01C338.767 379.959 338.783 379.904 338.787 379.847Z" fill="#343E48"/>
<path d="M264.082 565.56C272.146 557.726 281.278 551.072 291.206 545.796C297.7 542.462 302.593 537.353 307.333 532.396C304.757 529.171 299.995 522.287 303.004 519.408L365.63 462.15C368.737 459.302 372.192 456.858 375.912 454.877C396.78 443.533 418.29 433.413 440.335 424.571C440.811 422.795 441.201 421.497 441.352 421.064C437.528 414.088 434.193 406.855 431.373 399.416C425.209 403.539 418.508 406.795 411.457 409.093C407.819 410.372 403.868 410.455 400.179 409.331C385.619 404.925 371.408 399.44 357.663 392.922C357.586 392.882 357.524 392.819 357.485 392.741C357.446 392.663 357.433 392.575 357.447 392.489C357.447 392.078 357.447 391.667 357.62 391.234C355.152 390.411 339.718 384.956 332.379 377.574C332.324 377.494 332.299 377.397 332.309 377.3C332.319 377.203 332.363 377.113 332.433 377.045C332.503 376.978 332.595 376.937 332.692 376.931C332.79 376.925 332.886 376.953 332.964 377.011C340.064 384.155 354.979 389.48 357.75 390.433C358.63 385.301 360.576 380.412 363.465 376.08C358.12 373.5 352.93 370.608 347.922 367.421C345.952 366.166 339.48 361.295 338.614 361.75C338.587 361.834 338.587 361.925 338.614 362.01C338.939 364.174 343.614 368.504 345.389 370.084C345.437 370.128 345.473 370.182 345.496 370.242C345.518 370.302 345.526 370.367 345.519 370.43C345.173 373.266 347.684 376.535 352.879 380.107C352.947 380.124 353.01 380.158 353.061 380.205C353.112 380.253 353.15 380.313 353.172 380.379C353.193 380.446 353.198 380.517 353.184 380.586C353.171 380.654 353.14 380.718 353.095 380.772C353.049 380.825 352.991 380.866 352.926 380.891C352.86 380.916 352.79 380.923 352.72 380.913C352.651 380.903 352.586 380.875 352.53 380.832C352.475 380.79 352.431 380.734 352.403 380.67C347.035 376.99 344.437 373.569 344.675 370.452C343.636 369.543 338.181 364.694 337.791 362.031C337.736 361.838 337.741 361.632 337.807 361.443C337.873 361.253 337.996 361.088 338.159 360.971C339.631 360.04 345.173 364.586 348.355 366.621C353.366 369.827 358.572 372.719 363.941 375.279L364.829 374.111C364.883 374.04 364.959 373.99 365.045 373.966C365.131 373.943 365.222 373.948 365.305 373.981C380.458 380.475 393.1 384.609 403.643 386.298C414.675 382.344 425.158 376.997 434.836 370.387C438.82 367.789 437.001 362.031 436.373 360.581C435.512 361.04 434.565 361.314 433.592 361.384C432.619 361.455 431.642 361.322 430.723 360.992C424.662 358.416 425.312 345.255 425.355 338.566C425.008 336.592 425.052 334.569 425.485 332.613C424.38 330.946 423.887 328.949 424.087 326.96C424.288 324.971 425.17 323.113 426.585 321.701C428 320.288 429.86 319.409 431.849 319.212C433.838 319.015 435.835 319.512 437.499 320.62C440.447 319.993 443.512 320.226 446.331 321.291C447.324 319.739 448.697 318.467 450.32 317.594C451.942 316.722 453.761 316.278 455.603 316.304C457.445 316.331 459.25 316.827 460.846 317.746C462.443 318.665 463.779 319.977 464.727 321.556C465.675 323.136 466.204 324.931 466.265 326.773C466.325 328.614 465.914 330.44 465.071 332.078C464.229 333.717 462.982 335.113 461.449 336.134C459.915 337.156 458.147 337.769 456.311 337.916C455.863 341.348 454.296 344.536 451.851 346.986C450.004 349.212 448.581 351.758 447.652 354.498C446.959 356.987 447.392 360.364 449.362 360.992C451.786 361.836 454.362 360.364 456.332 358.698C478.954 339.799 494.323 324.386 510.732 297.371C511.07 296.701 511.614 296.158 512.285 295.823C512.956 295.487 513.717 295.377 514.455 295.509C517.161 290.703 520.279 283.603 519.283 277.866C518.092 270.939 518.807 269.77 519.543 269.532C520.279 269.294 521.707 269.835 524.803 276.416C524.933 276.697 525.063 276.979 525.193 277.303C526.35 274.132 527.34 270.902 528.158 267.627C529.219 263.298 530.323 261.306 531.449 261.458C533.375 261.696 533.18 268.818 533.072 270.744C534.458 267.086 536.124 260.548 537.986 261.025C539.848 261.501 538.895 267.519 538.657 269.402C539.458 267.67 540.216 266.869 540.93 267.043C542.467 267.367 542.077 271.892 541.709 274.533C541.365 276.99 540.822 279.415 540.086 281.784C540.952 280.94 541.926 280.399 542.575 280.724C543.225 281.048 543.268 282.889 541.709 286.287C538.7 292.781 534.09 301.181 530.994 306.701C531.374 307.359 531.574 308.105 531.574 308.865C531.574 309.625 531.374 310.372 530.994 311.03C520.82 331.292 500.493 354.563 474.711 375.756C471.032 388.353 468.019 401.136 465.684 414.05C468.108 416.02 492.873 436.888 486.465 455.591C481.227 470.896 458.475 483.278 418.817 492.392C425.312 528.521 438.062 566.967 438.3 568.85C438.668 572.27 433.689 575.907 425.312 578.397C427.476 596.667 427.303 595.087 427.13 595.541C424.64 602.447 419.445 616.713 400.525 634.225C400.477 634.273 400.417 634.307 400.351 634.325C400.286 634.342 400.217 634.342 400.151 634.325C400.085 634.307 400.025 634.273 399.977 634.225C399.929 634.177 399.894 634.118 399.876 634.052C398.101 628.987 397.711 621.583 398.923 611.431C400.201 599.893 402.149 595.065 400.677 580.908C395.655 580.475 387.515 579.046 386.996 574.175C384.002 546.509 382.938 518.669 383.814 490.855L342.207 552.333C341.831 552.845 341.327 553.25 340.746 553.508C340.166 553.766 339.528 553.869 338.895 553.805C335.908 553.805 331.384 552.052 326.08 548.74C312.853 562.94 313.525 562.269 313.373 562.356C297.704 567.925 280.841 569.254 264.493 566.209C264.412 566.226 264.327 566.217 264.25 566.185C264.173 566.152 264.108 566.097 264.064 566.026C264.019 565.956 263.997 565.874 264 565.79C264.004 565.707 264.032 565.627 264.082 565.56ZM442.803 351.013C442.803 350.558 442.803 349.151 443.106 348.848C447.652 343.674 443.43 339.41 441.46 342.938C440.768 344.172 440.183 344.735 439.599 344.735C439.014 344.735 438.625 344.107 438.516 343.891C435.746 336.422 427.931 333.543 426.524 341.553C426.287 343.035 426.164 344.533 426.156 346.034C426.307 354.13 427.931 358.871 430.983 360.17C434.815 361.815 439.642 357.355 439.642 357.312C439.708 357.254 439.791 357.218 439.879 357.21C439.967 357.202 440.055 357.223 440.13 357.269C440.205 357.315 440.264 357.384 440.297 357.466C440.33 357.548 440.335 357.638 440.313 357.723C440.313 357.94 437.997 364.564 437.954 364.629C438.109 365.848 437.926 367.086 437.426 368.208C436.926 369.33 436.128 370.294 435.118 370.993L434.274 371.556C439.339 370.95 445.097 367.811 451.721 361.966C446.548 362.897 443.106 355.472 442.803 351.013ZM433.299 372.53L434.014 378.786L441.807 370.127C442.023 369.889 441.201 369.911 454.384 371.015L453.172 361.858C445.487 368.807 438.993 372.27 433.299 372.53ZM537.813 261.804C537.813 261.804 536.904 261.977 535.237 267.043C534.436 269.51 533.613 271.697 532.812 273.537C532.64 274.991 532.394 276.436 532.076 277.866C533.048 279.269 533.868 280.772 534.523 282.347C536.256 277.683 537.426 272.829 538.008 267.887C538.571 263.189 538.008 261.891 537.813 261.804ZM540.908 274.424C541.58 269.575 541.038 267.93 540.757 267.822C540.476 267.714 539.675 268.017 537.921 273.732C537.164 277.085 536.181 280.383 534.977 283.603C535.654 285.385 536.134 287.236 536.406 289.123C538.62 284.471 540.137 279.518 540.908 274.424ZM540.908 285.941C542.77 281.958 542.164 281.46 542.164 281.46C541.774 281.265 539.999 282.542 539.22 284.144C538.311 286.655 537.467 288.474 536.471 290.638C536.211 291.179 535.691 290.963 535.648 290.638C535.321 285.369 533.223 280.365 529.695 276.438C529.615 276.363 529.567 276.259 529.563 276.15C529.559 276.04 529.599 275.933 529.674 275.853C529.748 275.773 529.852 275.725 529.961 275.721C530.071 275.717 530.178 275.757 530.258 275.831C530.648 276.23 531.016 276.649 531.362 277.087C531.919 274.306 532.216 271.48 532.25 268.645C532.25 262.54 531.275 262.15 531.275 262.15C531.275 262.15 530.063 263.081 528.873 267.735C527.983 271.375 526.885 274.96 525.582 278.472C527.277 284.471 528.336 290.631 528.743 296.851C528.743 297.371 527.963 297.479 527.942 296.851C527.942 296.721 526.903 282.672 524.024 276.697C520.776 270.03 519.694 270.203 519.694 270.203C519.694 270.203 518.763 270.593 519.975 277.607C521.621 287.066 512.94 299.449 511.641 301.224C514.001 306.398 521.729 311.658 526.989 311.766C531.449 304.319 537.293 293.842 540.973 285.941H540.908ZM470.251 388.701L467.134 381.103C467.109 380.896 467.163 380.687 467.286 380.518C490.102 362.811 516.057 337.7 529.392 312.351C523.634 314.667 511.057 306.03 510.364 299.492C494.302 325.469 479.062 340.774 456.917 359.39C456.002 360.179 454.991 360.848 453.908 361.382L455.271 371.491C455.278 371.553 455.271 371.615 455.251 371.673C455.231 371.731 455.197 371.784 455.154 371.828C455.11 371.872 455.057 371.905 454.999 371.925C454.94 371.946 454.878 371.953 454.817 371.946L442.283 370.907L434.014 379.999C433.96 380.058 433.891 380.1 433.813 380.12C433.736 380.141 433.655 380.138 433.579 380.113C433.503 380.087 433.436 380.041 433.387 379.978C433.337 379.916 433.307 379.84 433.299 379.76L432.52 372.833C423.552 378.754 413.899 383.566 403.772 387.164H403.556C393.014 385.475 380.48 381.471 365.24 374.911C361.426 379.968 359.014 385.942 358.248 392.229C371.873 398.667 385.953 404.094 400.374 408.465C403.914 409.541 407.704 409.465 411.197 408.248C416.319 406.518 421.281 404.345 426.026 401.754C430.355 383.982 428.645 391.926 429.165 385.475C429.165 385.366 429.208 385.262 429.285 385.185C429.362 385.107 429.467 385.064 429.576 385.064C429.685 385.064 429.79 385.107 429.867 385.185C429.944 385.262 429.987 385.366 429.987 385.475C429.425 392.338 431.135 399.654 441.98 420.479L464.84 413.985C465.641 408.378 467.914 397.988 470.251 388.701ZM401.434 581.99C402.733 594.372 400.763 601.3 399.659 610.63C409.033 603.636 417.626 595.652 425.29 586.818C423.363 569.889 422.584 563.222 422.584 563.222C414.881 562.864 407.173 563.778 399.768 565.928C399.854 566.837 401.088 578.7 401.434 581.99ZM387.45 572.227C392.732 562.962 427.779 558.719 436.568 566.188C431.286 548.697 427.065 533.5 423.775 519.949L413.254 493.236C413.124 492.89 413.254 492.738 413.557 492.695C435.875 487.37 478.218 476.806 485.599 455.266C491.856 437.018 467.329 416.431 465.078 414.591L442.067 421.258C440.368 426.6 439.201 432.096 438.581 437.667C440.4 436.628 442.196 435.654 443.993 434.701C444.086 434.667 444.188 434.668 444.28 434.703C444.372 434.737 444.449 434.804 444.496 434.891C444.543 434.977 444.558 435.078 444.537 435.174C444.516 435.271 444.462 435.356 444.383 435.416C425.762 445.627 408.156 457.587 391.801 471.134C389.687 472.838 387.959 474.972 386.732 477.394C385.504 479.816 384.804 482.471 384.679 485.183C383.459 514.219 384.386 543.306 387.45 572.206V572.227ZM342.489 550.233L383.619 489.361C383.619 487.954 383.619 486.547 383.792 485.161C383.939 482.32 384.69 479.543 385.997 477.015C387.304 474.488 389.135 472.269 391.368 470.506C405.939 458.495 421.461 447.687 437.78 438.187C438.154 433.895 438.93 429.648 440.097 425.501C418.244 434.324 396.916 444.392 376.215 455.656C372.55 457.609 369.146 460.016 366.084 462.821L305.104 518.563C315.386 517.503 341.969 539.821 342.489 550.212V550.233ZM318.2 555.883L334.652 538.198C329.504 532.467 323.537 527.528 316.945 523.542C305.125 535.903 299.627 542.419 291.596 546.553C289.279 547.744 286.92 549.065 284.582 550.537C295.44 554.061 306.784 555.858 318.2 555.862V555.883Z" fill="#343E48"/>
<path d="M474.624 521.378L485.317 518.607L482.547 507.913C482.518 507.807 482.533 507.693 482.587 507.598C482.642 507.503 482.733 507.433 482.839 507.404C482.945 507.376 483.058 507.39 483.154 507.445C483.249 507.5 483.319 507.59 483.348 507.696L486.118 518.39L496.812 515.619C496.918 515.594 497.031 515.611 497.124 515.668C497.217 515.725 497.284 515.816 497.31 515.922C497.336 516.029 497.319 516.141 497.262 516.234C497.205 516.328 497.113 516.395 497.007 516.42L486.313 519.213L489.084 530.037C489.11 530.143 489.093 530.255 489.036 530.348C488.979 530.442 488.887 530.509 488.781 530.534C488.675 530.56 488.563 530.543 488.469 530.486C488.376 530.429 488.309 530.338 488.283 530.231L485.534 519.559C475.186 522.244 474.883 522.33 474.71 522.33C474.584 522.342 474.458 522.302 474.361 522.221C474.263 522.14 474.202 522.023 474.191 521.897C474.179 521.771 474.218 521.645 474.3 521.548C474.381 521.45 474.497 521.389 474.624 521.378Z" fill="#6A1BCD"/>
</svg>
