<svg width="127" height="110" viewBox="0 0 127 110" fill="none" xmlns="http://www.w3.org/2000/svg">
<path d="M3.5 67.5C4 72.5 7.1 83 17.5 89C21 90.3333 28.6 91.1 31 83.5C31.8333 81.1667 32.1 75.8 26.5 73C24.5 72.1667 20.7 71.9 17.5 75.5C13.5 80 14.9289 89.4289 22 96.5C25 99.5 31.3 105.3 44.5 106.5" stroke="#B0A7A6" stroke-width="5"/>
<path fill-rule="evenodd" clip-rule="evenodd" d="M73.8961 15.4843C74.8823 14.8549 74.8581 13.3979 73.8122 12.8739C66.948 9.43524 59.2 7.5 51 7.5C22.8335 7.5 0 30.3335 0 58.5C0 61.6647 0.288255 64.7621 0.839942 67.7674C1.14886 69.4502 3.08143 70.1868 4.53037 69.277V69.277C5.42333 68.7163 5.89802 67.6518 5.71328 66.6137C5.24457 63.9799 5 61.2685 5 58.5C5 33.0949 25.5949 12.5 51 12.5C57.1749 12.5 63.0657 13.7167 68.4456 15.9234C70.2302 16.6554 72.2702 16.522 73.8961 15.4843V15.4843V15.4843ZM90.6898 30.643C89.5978 31.4412 89.3027 32.9817 90.0203 34.1282C94.4433 41.1947 97 49.5488 97 58.5C97 83.9051 76.4051 104.5 51 104.5C49.0452 104.5 47.1188 104.378 45.2281 104.141C44.5824 104.061 43.9461 104.206 43.4122 104.578V104.578C41.569 105.862 42.0026 108.759 44.2296 109.055C46.4447 109.348 48.7046 109.5 51 109.5C79.1665 109.5 102 86.6665 102 58.5C102 48.4777 99.1091 39.1307 94.1156 31.2473C93.373 30.0749 91.8103 29.8242 90.6898 30.643V30.643Z" fill="#B0A7A6"/>
<path d="M63.5 25C67.5 23.3334 77.6 20.5 86 22.5" stroke="#B0A7A6" stroke-width="5" stroke-linecap="round"/>
<path d="M79.5 2.99998C79.3794 7.10373 80.616 16.5752 86.5273 21.6313" stroke="#B0A7A6" stroke-width="5" stroke-linecap="round"/>
<path d="M25.288 47.104C25.736 47.168 26.04 47.304 26.2 47.512C26.376 47.72 26.464 47.992 26.464 48.328C26.464 49.432 25.872 49.944 24.688 49.864L23.848 49.792C22.904 49.712 21.96 49.648 21.016 49.6C20.088 49.552 19.112 49.528 18.088 49.528H17.008C16.816 51.896 16.616 54.056 16.408 56.008L20.536 55.936C21.128 55.936 21.52 56.04 21.712 56.248C21.92 56.456 22.024 56.736 22.024 57.088C22.024 57.632 21.864 58.064 21.544 58.384C21.224 58.688 20.768 58.84 20.176 58.84H16.072L15.928 59.872C15.592 62.512 14.872 64.392 13.768 65.512C12.68 66.632 11.176 67.192 9.256 67.192C8.168 67.192 7.168 66.96 6.256 66.496C5.344 66.016 4.672 65.44 4.24 64.768C4.064 64.496 3.976 64.168 3.976 63.784C3.976 63.4 4.064 63.064 4.24 62.776C4.432 62.488 4.664 62.344 4.936 62.344C5.128 62.344 5.312 62.408 5.488 62.536C5.68 62.664 5.92 62.912 6.208 63.28C6.976 64.288 7.928 64.792 9.064 64.792C9.976 64.792 10.736 64.424 11.344 63.688C11.968 62.936 12.368 61.76 12.544 60.16L12.688 58.84H11.536C11.168 58.84 10.848 58.736 10.576 58.528C10.32 58.32 10.192 58.024 10.192 57.64C10.192 57.144 10.32 56.768 10.576 56.512C10.832 56.24 11.208 56.104 11.704 56.104C12.152 56.104 12.592 56.096 13.024 56.08C13.216 54.32 13.424 52.184 13.648 49.672C11.92 49.832 10.704 50.112 10 50.512C9.296 50.912 8.944 51.504 8.944 52.288C8.944 52.832 9.104 53.352 9.424 53.848C9.52 53.992 9.568 54.136 9.568 54.28C9.568 54.568 9.408 54.824 9.088 55.048C8.768 55.256 8.408 55.36 8.008 55.36C7.576 55.36 7.208 55.232 6.904 54.976C6.712 54.816 6.528 54.488 6.352 53.992C6.176 53.496 6.088 52.944 6.088 52.336C6.088 50.352 7.104 48.912 9.136 48.016C11.184 47.12 14.168 46.672 18.088 46.672C20.808 46.672 23.208 46.816 25.288 47.104ZM34.2436 59.632C34.4516 59.632 34.6116 59.736 34.7236 59.944C34.8356 60.152 34.8916 60.416 34.8916 60.736C34.8916 61.504 34.6596 61.96 34.1956 62.104C33.2356 62.44 32.1796 62.632 31.0276 62.68C30.7236 64.024 30.1236 65.104 29.2276 65.92C28.3316 66.72 27.3156 67.12 26.1796 67.12C25.2196 67.12 24.3956 66.888 23.7076 66.424C23.0356 65.96 22.5236 65.344 22.1716 64.576C21.8196 63.808 21.6436 62.976 21.6436 62.08C21.6436 60.864 21.8756 59.784 22.3396 58.84C22.8036 57.88 23.4436 57.136 24.2596 56.608C25.0756 56.064 25.9796 55.792 26.9716 55.792C28.1876 55.792 29.1636 56.216 29.8996 57.064C30.6516 57.896 31.0916 58.928 31.2196 60.16C31.9716 60.112 32.8676 59.952 33.9076 59.68C34.0356 59.648 34.1476 59.632 34.2436 59.632ZM26.3716 64.576C26.8836 64.576 27.3236 64.368 27.6916 63.952C28.0756 63.536 28.3316 62.936 28.4596 62.152C27.9636 61.816 27.5796 61.376 27.3076 60.832C27.0516 60.288 26.9236 59.712 26.9236 59.104C26.9236 58.848 26.9476 58.592 26.9956 58.336H26.8756C26.2356 58.336 25.6996 58.648 25.2676 59.272C24.8516 59.88 24.6436 60.744 24.6436 61.864C24.6436 62.744 24.8116 63.416 25.1476 63.88C25.4996 64.344 25.9076 64.576 26.3716 64.576ZM34.5357 67.12C33.9277 67.12 33.4957 66.8 33.2397 66.16C32.9997 65.52 32.8797 64.496 32.8797 63.088C32.8797 61.008 33.1757 59.032 33.7677 57.16C33.9117 56.696 34.1437 56.36 34.4637 56.152C34.7997 55.928 35.2637 55.816 35.8557 55.816C36.1757 55.816 36.3997 55.856 36.5277 55.936C36.6557 56.016 36.7197 56.168 36.7197 56.392C36.7197 56.648 36.5997 57.224 36.3597 58.12C36.1997 58.76 36.0717 59.32 35.9757 59.8C35.8797 60.28 35.7997 60.872 35.7357 61.576C36.2637 60.2 36.8557 59.08 37.5117 58.216C38.1677 57.352 38.8077 56.736 39.4317 56.368C40.0717 56 40.6557 55.816 41.1837 55.816C42.2237 55.816 42.7437 56.336 42.7437 57.376C42.7437 57.584 42.6717 58.088 42.5277 58.888C42.3997 59.528 42.3357 59.928 42.3357 60.088C42.3357 60.648 42.5357 60.928 42.9357 60.928C43.3837 60.928 43.9597 60.576 44.6637 59.872C44.8717 59.664 45.0877 59.56 45.3117 59.56C45.5197 59.56 45.6797 59.656 45.7917 59.848C45.9197 60.024 45.9837 60.264 45.9837 60.568C45.9837 61.16 45.8237 61.624 45.5037 61.96C45.0557 62.424 44.5277 62.824 43.9197 63.16C43.3277 63.48 42.6957 63.64 42.0237 63.64C41.1757 63.64 40.5277 63.424 40.0797 62.992C39.6477 62.56 39.4317 61.976 39.4317 61.24C39.4317 61 39.4557 60.76 39.5037 60.52C39.5357 60.2 39.5517 59.984 39.5517 59.872C39.5517 59.616 39.4637 59.488 39.2877 59.488C39.0477 59.488 38.7277 59.76 38.3277 60.304C37.9437 60.832 37.5597 61.536 37.1757 62.416C36.7917 63.296 36.4797 64.224 36.2397 65.2C36.0637 65.952 35.8557 66.464 35.6157 66.736C35.3917 66.992 35.0317 67.12 34.5357 67.12ZM62.6185 59.704C62.6665 59.688 62.7465 59.68 62.8585 59.68C63.0985 59.68 63.2825 59.76 63.4105 59.92C63.5385 60.08 63.6025 60.296 63.6025 60.568C63.6025 61.064 63.5065 61.456 63.3145 61.744C63.1225 62.016 62.8345 62.216 62.4505 62.344C61.7145 62.584 60.9305 62.704 60.0985 62.704C59.3945 62.704 58.7305 62.608 58.1065 62.416C57.6425 63.168 57.1305 63.944 56.5705 64.744C55.9305 65.656 55.3785 66.28 54.9145 66.616C54.4665 66.952 53.9545 67.12 53.3785 67.12C52.7385 67.12 52.2505 66.872 51.9145 66.376C51.5945 65.88 51.3945 65.064 51.3145 63.928L51.1945 62.176C50.6985 63.52 50.2505 64.544 49.8505 65.248C49.4665 65.952 49.0745 66.44 48.6745 66.712C48.2905 66.984 47.8345 67.12 47.3065 67.12C46.6505 67.12 46.1305 66.864 45.7465 66.352C45.3785 65.84 45.1465 65.032 45.0505 63.928C44.8585 61.688 44.7625 59.728 44.7625 58.048V57.208C44.7785 56.68 44.9225 56.312 45.1945 56.104C45.4665 55.896 45.8745 55.792 46.4185 55.792C46.8345 55.792 47.1385 55.888 47.3305 56.08C47.5385 56.256 47.6425 56.56 47.6425 56.992C47.6425 58.832 47.7545 61.224 47.9785 64.168C49.0665 61.88 50.0665 59.496 50.9785 57.016C51.1545 56.536 51.3625 56.216 51.6025 56.056C51.8585 55.88 52.1625 55.792 52.5145 55.792C52.9465 55.792 53.2425 55.88 53.4025 56.056C53.5785 56.232 53.6665 56.544 53.6665 56.992C53.6665 58.832 53.7785 61.224 54.0025 64.168C54.9625 62.744 55.6825 61.608 56.1625 60.76C55.9225 60.296 55.8025 59.744 55.8025 59.104C55.8025 58.56 55.9225 58.032 56.1625 57.52C56.4025 57.008 56.7305 56.592 57.1465 56.272C57.5625 55.952 58.0345 55.792 58.5625 55.792C59.0265 55.792 59.4025 55.96 59.6905 56.296C59.9785 56.616 60.1225 57.088 60.1225 57.712C60.1225 58.432 59.9305 59.256 59.5465 60.184C60.1545 60.152 60.9625 60.032 61.9705 59.824L62.6185 59.704ZM64.4712 67.12C63.4792 67.12 62.6872 66.76 62.0952 66.04C61.5032 65.32 61.2072 64.376 61.2072 63.208C61.2072 61.928 61.5032 60.72 62.0952 59.584C62.6872 58.432 63.4712 57.512 64.4472 56.824C65.4392 56.12 66.4872 55.768 67.5912 55.768C67.9432 55.768 68.1752 55.84 68.2872 55.984C68.4152 56.112 68.5192 56.352 68.5992 56.704C68.9352 56.64 69.2872 56.608 69.6552 56.608C70.4392 56.608 70.8312 56.888 70.8312 57.448C70.8312 57.784 70.7112 58.584 70.4712 59.848C70.1032 61.688 69.9192 62.968 69.9192 63.688C69.9192 63.928 69.9752 64.12 70.0872 64.264C70.2152 64.408 70.3752 64.48 70.5672 64.48C70.8712 64.48 71.2392 64.288 71.6712 63.904C72.1032 63.504 72.6872 62.864 73.4232 61.984C73.6152 61.76 73.8312 61.648 74.0712 61.648C74.2792 61.648 74.4392 61.744 74.5512 61.936C74.6792 62.128 74.7432 62.392 74.7432 62.728C74.7432 63.368 74.5912 63.864 74.2872 64.216C73.6312 65.032 72.9352 65.72 72.1992 66.28C71.4632 66.84 70.7512 67.12 70.0632 67.12C69.5352 67.12 69.0472 66.944 68.5992 66.592C68.1672 66.224 67.8392 65.728 67.6152 65.104C66.7832 66.448 65.7352 67.12 64.4712 67.12ZM65.3352 64.696C65.6872 64.696 66.0232 64.488 66.3432 64.072C66.6632 63.656 66.8952 63.104 67.0392 62.416L67.9272 58C67.2552 58.016 66.6312 58.272 66.0552 58.768C65.4952 59.248 65.0472 59.888 64.7112 60.688C64.3752 61.488 64.2072 62.336 64.2072 63.232C64.2072 63.728 64.3032 64.096 64.4952 64.336C64.7032 64.576 64.9832 64.696 65.3352 64.696ZM74.4966 67.12C73.8886 67.12 73.4566 66.8 73.2006 66.16C72.9606 65.52 72.8406 64.496 72.8406 63.088C72.8406 61.008 73.1366 59.032 73.7286 57.16C73.8726 56.696 74.1046 56.36 74.4246 56.152C74.7606 55.928 75.2246 55.816 75.8166 55.816C76.1366 55.816 76.3606 55.856 76.4886 55.936C76.6166 56.016 76.6806 56.168 76.6806 56.392C76.6806 56.648 76.5606 57.224 76.3206 58.12C76.1606 58.76 76.0326 59.32 75.9366 59.8C75.8406 60.28 75.7606 60.872 75.6966 61.576C76.2246 60.2 76.8166 59.08 77.4726 58.216C78.1286 57.352 78.7686 56.736 79.3926 56.368C80.0326 56 80.6166 55.816 81.1446 55.816C82.1846 55.816 82.7046 56.336 82.7046 57.376C82.7046 57.584 82.6326 58.088 82.4886 58.888C82.3606 59.528 82.2966 59.928 82.2966 60.088C82.2966 60.648 82.4966 60.928 82.8966 60.928C83.3446 60.928 83.9206 60.576 84.6246 59.872C84.8326 59.664 85.0486 59.56 85.2726 59.56C85.4806 59.56 85.6406 59.656 85.7526 59.848C85.8806 60.024 85.9446 60.264 85.9446 60.568C85.9446 61.16 85.7846 61.624 85.4646 61.96C85.0166 62.424 84.4886 62.824 83.8806 63.16C83.2886 63.48 82.6566 63.64 81.9846 63.64C81.1366 63.64 80.4886 63.424 80.0406 62.992C79.6086 62.56 79.3926 61.976 79.3926 61.24C79.3926 61 79.4166 60.76 79.4646 60.52C79.4966 60.2 79.5126 59.984 79.5126 59.872C79.5126 59.616 79.4246 59.488 79.2486 59.488C79.0086 59.488 78.6886 59.76 78.2886 60.304C77.9046 60.832 77.5206 61.536 77.1366 62.416C76.7526 63.296 76.4406 64.224 76.2006 65.2C76.0246 65.952 75.8166 66.464 75.5766 66.736C75.3526 66.992 74.9926 67.12 74.4966 67.12ZM92.4505 61.648C92.6265 62.96 92.8825 64.256 93.2185 65.536C93.2825 65.744 93.3145 65.96 93.3145 66.184C93.3145 66.904 92.8745 67.264 91.9945 67.264C91.4985 67.264 91.1145 67.128 90.8425 66.856C90.5865 66.584 90.3465 66.072 90.1225 65.32L90.0985 65.224C89.4905 65.976 88.9385 66.48 88.4425 66.736C87.9625 66.992 87.4025 67.12 86.7625 67.12C85.7865 67.12 84.9785 66.76 84.3385 66.04C83.7145 65.304 83.4025 64.352 83.4025 63.184C83.4025 61.904 83.6745 60.72 84.2185 59.632C84.7625 58.544 85.5065 57.656 86.4505 56.968C87.3945 56.264 88.4505 55.84 89.6185 55.696C89.9225 52.672 90.4985 50.04 91.3465 47.8C92.2105 45.56 93.3545 44.44 94.7785 44.44C95.4665 44.44 96.0345 44.752 96.4825 45.376C96.9465 46 97.1785 46.944 97.1785 48.208C97.1785 49.968 96.7465 52.024 95.8825 54.376C95.0185 56.728 93.8745 59.152 92.4505 61.648ZM94.5145 46.792C94.0505 46.792 93.6105 47.976 93.1945 50.344C92.7945 52.712 92.5225 55.288 92.3785 58.072C94.1545 54.232 95.0425 51.112 95.0425 48.712C95.0425 48.104 94.9865 47.632 94.8745 47.296C94.7785 46.96 94.6585 46.792 94.5145 46.792ZM87.6025 64.696C87.9225 64.696 88.2265 64.576 88.5145 64.336C88.8185 64.096 89.2025 63.632 89.6665 62.944C89.5065 61.776 89.4265 60.568 89.4265 59.32C89.4265 58.824 89.4345 58.44 89.4505 58.168C88.5705 58.424 87.8425 59.008 87.2665 59.92C86.6905 60.832 86.4025 61.84 86.4025 62.944C86.4025 64.112 86.8025 64.696 87.6025 64.696Z" fill="#6A1BCD"/>
<path d="M91.6184 65.261C92.0102 67.4128 94.963 72.0863 102.358 71.6236C102.689 71.5937 103.114 71.5121 103.565 71.3619M103.565 71.3619C104.806 70.9489 106.246 70.0172 106.475 68.215C106.419 67.594 105.923 66.4278 104.386 66.7314C103.391 67.0456 101.834 68.4115 103.565 71.3619ZM103.565 71.3619C104.371 72.2827 106.756 74.1271 109.841 74.1378C111.205 74.1346 114.424 73.9911 116.391 73.4427M114.843 67.0699C115.646 68.0336 118.74 70.1271 124.696 70.7922M124.696 71.3619C123.382 72.2377 120.492 75.0404 119.441 79.2444" stroke="#6A1BCD" stroke-width="3" stroke-linecap="round"/>
</svg>
