<svg width="102" height="110" viewBox="0 0 102 110" fill="none" xmlns="http://www.w3.org/2000/svg">
<path d="M3.5 67.5C4 72.5 7.1 83 17.5 89C21 90.3333 28.6 91.1 31 83.5C31.8333 81.1667 32.1 75.8 26.5 73C24.5 72.1667 20.7 71.9 17.5 75.5C13.5 80 14.9289 89.4289 22 96.5C25 99.5 31.3 105.3 44.5 106.5" stroke="#343E48" stroke-width="5"/>
<path fill-rule="evenodd" clip-rule="evenodd" d="M73.8961 15.4843C74.8823 14.8549 74.8581 13.3979 73.8122 12.8739C66.948 9.43524 59.2 7.5 51 7.5C22.8335 7.5 0 30.3335 0 58.5C0 61.6647 0.288255 64.7621 0.839942 67.7674C1.14886 69.4502 3.08143 70.1868 4.53037 69.277C5.42333 68.7163 5.89802 67.6518 5.71328 66.6137C5.24457 63.9799 5 61.2685 5 58.5C5 33.0949 25.5949 12.5 51 12.5C57.1749 12.5 63.0657 13.7167 68.4456 15.9234C70.2302 16.6554 72.2702 16.522 73.8961 15.4843ZM90.6898 30.643C89.5978 31.4412 89.3027 32.9817 90.0203 34.1282C94.4433 41.1947 97 49.5488 97 58.5C97 83.9051 76.4051 104.5 51 104.5C49.0452 104.5 47.1188 104.378 45.2281 104.141C44.5824 104.061 43.9461 104.206 43.4122 104.578C41.569 105.862 42.0026 108.759 44.2296 109.055C46.4447 109.348 48.7046 109.5 51 109.5C79.1665 109.5 102 86.6665 102 58.5C102 48.4777 99.1091 39.1307 94.1156 31.2473C93.373 30.0749 91.8102 29.8242 90.6898 30.643Z" fill="#343E48"/>
<path d="M63.5 25C67.5 23.3334 77.6 20.5 86 22.5" stroke="#343E48" stroke-width="5" stroke-linecap="round"/>
<path d="M79.5 2.99998C79.3794 7.10373 80.616 16.5752 86.5273 21.6313" stroke="#343E48" stroke-width="5" stroke-linecap="round"/>
<path d="M70.98 40.84C71.7267 40.9467 72.2333 41.1733 72.5 41.52C72.7933 41.8667 72.94 42.32 72.94 42.88C72.94 44.72 71.9533 45.5733 69.98 45.44L68.58 45.32C67.0067 45.1867 65.4333 45.08 63.86 45C62.3133 44.92 60.6867 44.88 58.98 44.88H57.18C56.86 48.8267 56.5267 52.4267 56.18 55.68L63.06 55.56C64.0467 55.56 64.7 55.7333 65.02 56.08C65.3667 56.4267 65.54 56.8933 65.54 57.48C65.54 58.3867 65.2733 59.1067 64.74 59.64C64.2067 60.1467 63.4467 60.4 62.46 60.4H55.62L55.38 62.12C54.82 66.52 53.62 69.6533 51.78 71.52C49.9667 73.3867 47.46 74.32 44.26 74.32C42.4467 74.32 40.78 73.9333 39.26 73.16C37.74 72.36 36.62 71.4 35.9 70.28C35.6067 69.8267 35.46 69.28 35.46 68.64C35.46 68 35.6067 67.44 35.9 66.96C36.22 66.48 36.6067 66.24 37.06 66.24C37.38 66.24 37.6867 66.3467 37.98 66.56C38.3 66.7733 38.7 67.1867 39.18 67.8C40.46 69.48 42.0467 70.32 43.94 70.32C45.46 70.32 46.7267 69.7067 47.74 68.48C48.78 67.2267 49.4467 65.2667 49.74 62.6L49.98 60.4H48.06C47.4467 60.4 46.9133 60.2267 46.46 59.88C46.0333 59.5333 45.82 59.04 45.82 58.4C45.82 57.5733 46.0333 56.9467 46.46 56.52C46.8867 56.0667 47.5133 55.84 48.34 55.84C49.0867 55.84 49.82 55.8267 50.54 55.8C50.86 52.8667 51.2067 49.3067 51.58 45.12C48.7 45.3867 46.6733 45.8533 45.5 46.52C44.3267 47.1867 43.74 48.1733 43.74 49.48C43.74 50.3867 44.0067 51.2533 44.54 52.08C44.7 52.32 44.78 52.56 44.78 52.8C44.78 53.28 44.5133 53.7067 43.98 54.08C43.4467 54.4267 42.8467 54.6 42.18 54.6C41.46 54.6 40.8467 54.3867 40.34 53.96C40.02 53.6933 39.7133 53.1467 39.42 52.32C39.1267 51.4933 38.98 50.5733 38.98 49.56C38.98 46.2533 40.6733 43.8533 44.06 42.36C47.4733 40.8667 52.4467 40.12 58.98 40.12C63.5133 40.12 67.5133 40.36 70.98 40.84Z" fill="#343E48"/>
</svg>
