<svg width="305" height="77" viewBox="0 0 305 77" fill="none" xmlns="http://www.w3.org/2000/svg">
<path d="M36.48 18.84C37.2267 18.9467 37.7333 19.1733 38 19.52C38.2933 19.8667 38.44 20.32 38.44 20.88C38.44 22.72 37.4533 23.5733 35.48 23.44L34.08 23.32C32.5067 23.1867 30.9333 23.08 29.36 23C27.8133 22.92 26.1867 22.88 24.48 22.88H22.68C22.36 26.8267 22.0267 30.4267 21.68 33.68L28.56 33.56C29.5467 33.56 30.2 33.7333 30.52 34.08C30.8667 34.4267 31.04 34.8933 31.04 35.48C31.04 36.3867 30.7733 37.1067 30.24 37.64C29.7067 38.1467 28.9467 38.4 27.96 38.4H21.12L20.88 40.12C20.32 44.52 19.12 47.6533 17.28 49.52C15.4667 51.3867 12.96 52.32 9.76 52.32C7.94667 52.32 6.28 51.9333 4.76 51.16C3.24 50.36 2.12 49.4 1.4 48.28C1.10667 47.8267 0.96 47.28 0.96 46.64C0.96 46 1.10667 45.44 1.4 44.96C1.72 44.48 2.10667 44.24 2.56 44.24C2.88 44.24 3.18667 44.3467 3.48 44.56C3.8 44.7733 4.2 45.1867 4.68 45.8C5.96 47.48 7.54667 48.32 9.44 48.32C10.96 48.32 12.2267 47.7067 13.24 46.48C14.28 45.2267 14.9467 43.2667 15.24 40.6L15.48 38.4H13.56C12.9467 38.4 12.4133 38.2267 11.96 37.88C11.5333 37.5333 11.32 37.04 11.32 36.4C11.32 35.5733 11.5333 34.9467 11.96 34.52C12.3867 34.0667 13.0133 33.84 13.84 33.84C14.5867 33.84 15.32 33.8267 16.04 33.8C16.36 30.8667 16.7067 27.3067 17.08 23.12C14.2 23.3867 12.1733 23.8533 11 24.52C9.82667 25.1867 9.24 26.1733 9.24 27.48C9.24 28.3867 9.50667 29.2533 10.04 30.08C10.2 30.32 10.28 30.56 10.28 30.8C10.28 31.28 10.0133 31.7067 9.48 32.08C8.94667 32.4267 8.34667 32.6 7.68 32.6C6.96 32.6 6.34667 32.3867 5.84 31.96C5.52 31.6933 5.21333 31.1467 4.92 30.32C4.62667 29.4933 4.48 28.5733 4.48 27.56C4.48 24.2533 6.17333 21.8533 9.56 20.36C12.9733 18.8667 17.9467 18.12 24.48 18.12C29.0133 18.12 33.0133 18.36 36.48 18.84ZM51.4059 39.72C51.7526 39.72 52.0193 39.8933 52.2059 40.24C52.3926 40.5867 52.4859 41.0267 52.4859 41.56C52.4859 42.84 52.0993 43.6 51.3259 43.84C49.7259 44.4 47.9659 44.72 46.0459 44.8C45.5393 47.04 44.5393 48.84 43.0459 50.2C41.5526 51.5333 39.8593 52.2 37.9659 52.2C36.3659 52.2 34.9926 51.8133 33.8459 51.04C32.7259 50.2667 31.8726 49.24 31.2859 47.96C30.6993 46.68 30.4059 45.2933 30.4059 43.8C30.4059 41.7733 30.7926 39.9733 31.5659 38.4C32.3393 36.8 33.4059 35.56 34.7659 34.68C36.1259 33.7733 37.6326 33.32 39.2859 33.32C41.3126 33.32 42.9393 34.0267 44.1659 35.44C45.4193 36.8267 46.1526 38.5467 46.3659 40.6C47.6193 40.52 49.1126 40.2533 50.8459 39.8C51.0593 39.7467 51.2459 39.72 51.4059 39.72ZM38.2859 47.96C39.1393 47.96 39.8726 47.6133 40.4859 46.92C41.1259 46.2267 41.5526 45.2267 41.7659 43.92C40.9393 43.36 40.2993 42.6267 39.8459 41.72C39.4193 40.8133 39.2059 39.8533 39.2059 38.84C39.2059 38.4133 39.2459 37.9867 39.3259 37.56H39.1259C38.0593 37.56 37.1659 38.08 36.4459 39.12C35.7526 40.1333 35.4059 41.5733 35.4059 43.44C35.4059 44.9067 35.6859 46.0267 36.2459 46.8C36.8326 47.5733 37.5126 47.96 38.2859 47.96ZM51.8928 52.2C50.8795 52.2 50.1595 51.6667 49.7328 50.6C49.3328 49.5333 49.1328 47.8267 49.1328 45.48C49.1328 42.0133 49.6261 38.72 50.6128 35.6C50.8528 34.8267 51.2395 34.2667 51.7728 33.92C52.3328 33.5467 53.1061 33.36 54.0928 33.36C54.6261 33.36 54.9995 33.4267 55.2128 33.56C55.4261 33.6933 55.5328 33.9467 55.5328 34.32C55.5328 34.7467 55.3328 35.7067 54.9328 37.2C54.6661 38.2667 54.4528 39.2 54.2928 40C54.1328 40.8 53.9995 41.7867 53.8928 42.96C54.7728 40.6667 55.7595 38.8 56.8528 37.36C57.9461 35.92 59.0128 34.8933 60.0528 34.28C61.1195 33.6667 62.0928 33.36 62.9728 33.36C64.7061 33.36 65.5728 34.2267 65.5728 35.96C65.5728 36.3067 65.4528 37.1467 65.2128 38.48C64.9995 39.5467 64.8928 40.2133 64.8928 40.48C64.8928 41.4133 65.2261 41.88 65.8928 41.88C66.6395 41.88 67.5995 41.2933 68.7728 40.12C69.1195 39.7733 69.4795 39.6 69.8528 39.6C70.1995 39.6 70.4661 39.76 70.6528 40.08C70.8661 40.3733 70.9728 40.7733 70.9728 41.28C70.9728 42.2667 70.7061 43.04 70.1728 43.6C69.4261 44.3733 68.5461 45.04 67.5328 45.6C66.5461 46.1333 65.4928 46.4 64.3728 46.4C62.9595 46.4 61.8795 46.04 61.1328 45.32C60.4128 44.6 60.0528 43.6267 60.0528 42.4C60.0528 42 60.0928 41.6 60.1728 41.2C60.2261 40.6667 60.2528 40.3067 60.2528 40.12C60.2528 39.6933 60.1061 39.48 59.8128 39.48C59.4128 39.48 58.8795 39.9333 58.2128 40.84C57.5728 41.72 56.9328 42.8933 56.2928 44.36C55.6528 45.8267 55.1328 47.3733 54.7328 49C54.4395 50.2533 54.0928 51.1067 53.6928 51.56C53.3195 51.9867 52.7195 52.2 51.8928 52.2ZM98.6975 39.84C98.7775 39.8133 98.9108 39.8 99.0975 39.8C99.4975 39.8 99.8042 39.9333 100.018 40.2C100.231 40.4667 100.338 40.8267 100.338 41.28C100.338 42.1067 100.178 42.76 99.8575 43.24C99.5375 43.6933 99.0575 44.0267 98.4175 44.24C97.1908 44.64 95.8842 44.84 94.4975 44.84C93.3242 44.84 92.2175 44.68 91.1775 44.36C90.4042 45.6133 89.5508 46.9067 88.6175 48.24C87.5508 49.76 86.6308 50.8 85.8575 51.36C85.1108 51.92 84.2575 52.2 83.2975 52.2C82.2308 52.2 81.4175 51.7867 80.8575 50.96C80.3242 50.1333 79.9908 48.7733 79.8575 46.88L79.6575 43.96C78.8308 46.2 78.0842 47.9067 77.4175 49.08C76.7775 50.2533 76.1242 51.0667 75.4575 51.52C74.8175 51.9733 74.0575 52.2 73.1775 52.2C72.0842 52.2 71.2175 51.7733 70.5775 50.92C69.9642 50.0667 69.5775 48.72 69.4175 46.88C69.0975 43.1467 68.9375 39.88 68.9375 37.08V35.68C68.9642 34.8 69.2042 34.1867 69.6575 33.84C70.1108 33.4933 70.7908 33.32 71.6975 33.32C72.3908 33.32 72.8975 33.48 73.2175 33.8C73.5642 34.0933 73.7375 34.6 73.7375 35.32C73.7375 38.3867 73.9242 42.3733 74.2975 47.28C76.1108 43.4667 77.7775 39.4933 79.2975 35.36C79.5908 34.56 79.9375 34.0267 80.3375 33.76C80.7642 33.4667 81.2708 33.32 81.8575 33.32C82.5775 33.32 83.0708 33.4667 83.3375 33.76C83.6308 34.0533 83.7775 34.5733 83.7775 35.32C83.7775 38.3867 83.9642 42.3733 84.3375 47.28C85.9375 44.9067 87.1375 43.0133 87.9375 41.6C87.5375 40.8267 87.3375 39.9067 87.3375 38.84C87.3375 37.9333 87.5375 37.0533 87.9375 36.2C88.3375 35.3467 88.8842 34.6533 89.5775 34.12C90.2708 33.5867 91.0575 33.32 91.9375 33.32C92.7108 33.32 93.3375 33.6 93.8175 34.16C94.2975 34.6933 94.5375 35.48 94.5375 36.52C94.5375 37.72 94.2175 39.0933 93.5775 40.64C94.5908 40.5867 95.9375 40.3867 97.6175 40.04L98.6975 39.84ZM101.785 52.2C100.132 52.2 98.812 51.6 97.8253 50.4C96.8386 49.2 96.3453 47.6267 96.3453 45.68C96.3453 43.5467 96.8386 41.5333 97.8253 39.64C98.812 37.72 100.119 36.1867 101.745 35.04C103.399 33.8667 105.145 33.28 106.985 33.28C107.572 33.28 107.959 33.4 108.145 33.64C108.359 33.8533 108.532 34.2533 108.665 34.84C109.225 34.7333 109.812 34.68 110.425 34.68C111.732 34.68 112.385 35.1467 112.385 36.08C112.385 36.64 112.185 37.9733 111.785 40.08C111.172 43.1467 110.865 45.28 110.865 46.48C110.865 46.88 110.959 47.2 111.145 47.44C111.359 47.68 111.625 47.8 111.945 47.8C112.452 47.8 113.065 47.48 113.785 46.84C114.505 46.1733 115.479 45.1067 116.705 43.64C117.025 43.2667 117.385 43.08 117.785 43.08C118.132 43.08 118.399 43.24 118.585 43.56C118.799 43.88 118.905 44.32 118.905 44.88C118.905 45.9467 118.652 46.7733 118.145 47.36C117.052 48.72 115.892 49.8667 114.665 50.8C113.439 51.7333 112.252 52.2 111.105 52.2C110.225 52.2 109.412 51.9067 108.665 51.32C107.945 50.7067 107.399 49.88 107.025 48.84C105.639 51.08 103.892 52.2 101.785 52.2ZM103.225 48.16C103.812 48.16 104.372 47.8133 104.905 47.12C105.439 46.4267 105.825 45.5067 106.065 44.36L107.545 37C106.425 37.0267 105.385 37.4533 104.425 38.28C103.492 39.08 102.745 40.1467 102.185 41.48C101.625 42.8133 101.345 44.2267 101.345 45.72C101.345 46.5467 101.505 47.16 101.825 47.56C102.172 47.96 102.639 48.16 103.225 48.16ZM118.494 52.2C117.481 52.2 116.761 51.6667 116.334 50.6C115.934 49.5333 115.734 47.8267 115.734 45.48C115.734 42.0133 116.228 38.72 117.214 35.6C117.454 34.8267 117.841 34.2667 118.374 33.92C118.934 33.5467 119.708 33.36 120.694 33.36C121.228 33.36 121.601 33.4267 121.814 33.56C122.028 33.6933 122.134 33.9467 122.134 34.32C122.134 34.7467 121.934 35.7067 121.534 37.2C121.268 38.2667 121.054 39.2 120.894 40C120.734 40.8 120.601 41.7867 120.494 42.96C121.374 40.6667 122.361 38.8 123.454 37.36C124.548 35.92 125.614 34.8933 126.654 34.28C127.721 33.6667 128.694 33.36 129.574 33.36C131.308 33.36 132.174 34.2267 132.174 35.96C132.174 36.3067 132.054 37.1467 131.814 38.48C131.601 39.5467 131.494 40.2133 131.494 40.48C131.494 41.4133 131.828 41.88 132.494 41.88C133.241 41.88 134.201 41.2933 135.374 40.12C135.721 39.7733 136.081 39.6 136.454 39.6C136.801 39.6 137.068 39.76 137.254 40.08C137.468 40.3733 137.574 40.7733 137.574 41.28C137.574 42.2667 137.308 43.04 136.774 43.6C136.028 44.3733 135.148 45.04 134.134 45.6C133.148 46.1333 132.094 46.4 130.974 46.4C129.561 46.4 128.481 46.04 127.734 45.32C127.014 44.6 126.654 43.6267 126.654 42.4C126.654 42 126.694 41.6 126.774 41.2C126.828 40.6667 126.854 40.3067 126.854 40.12C126.854 39.6933 126.708 39.48 126.414 39.48C126.014 39.48 125.481 39.9333 124.814 40.84C124.174 41.72 123.534 42.8933 122.894 44.36C122.254 45.8267 121.734 47.3733 121.334 49C121.041 50.2533 120.694 51.1067 120.294 51.56C119.921 51.9867 119.321 52.2 118.494 52.2ZM148.418 43.08C148.711 45.2667 149.138 47.4267 149.698 49.56C149.804 49.9067 149.858 50.2667 149.858 50.64C149.858 51.84 149.124 52.44 147.658 52.44C146.831 52.44 146.191 52.2133 145.738 51.76C145.311 51.3067 144.911 50.4533 144.538 49.2L144.498 49.04C143.484 50.2933 142.564 51.1333 141.738 51.56C140.938 51.9867 140.004 52.2 138.938 52.2C137.311 52.2 135.964 51.6 134.898 50.4C133.858 49.1733 133.338 47.5867 133.338 45.64C133.338 43.5067 133.791 41.5333 134.698 39.72C135.604 37.9067 136.844 36.4267 138.418 35.28C139.991 34.1067 141.751 33.4 143.697 33.16C144.204 28.12 145.164 23.7333 146.578 20C148.018 16.2667 149.924 14.4 152.298 14.4C153.444 14.4 154.391 14.92 155.138 15.96C155.911 17 156.298 18.5733 156.298 20.68C156.298 23.6133 155.578 27.04 154.138 30.96C152.698 34.88 150.791 38.92 148.418 43.08ZM151.858 18.32C151.084 18.32 150.351 20.2933 149.658 24.24C148.991 28.1867 148.538 32.48 148.298 37.12C151.258 30.72 152.738 25.52 152.738 21.52C152.738 20.5067 152.644 19.72 152.458 19.16C152.298 18.6 152.098 18.32 151.858 18.32ZM140.338 48.16C140.871 48.16 141.378 47.96 141.858 47.56C142.364 47.16 143.004 46.3867 143.778 45.24C143.511 43.2933 143.378 41.28 143.378 39.2C143.378 38.3733 143.391 37.7333 143.418 37.28C141.951 37.7067 140.738 38.68 139.778 40.2C138.818 41.72 138.338 43.4 138.338 45.24C138.338 47.1867 139.004 48.16 140.338 48.16Z" fill="#EF3851"/>
<path d="M166.442 52.3262C168.683 51.8851 169.406 53.5793 169.488 54.4816C169.154 57.0996 167.056 58.4531 165.247 59.0531C162.723 54.767 164.992 52.7827 166.442 52.3262Z" fill="#EF3851"/>
<path d="M147.834 50.1901C148.405 53.3161 152.709 60.1054 163.487 59.4333C163.969 59.3898 164.589 59.2713 165.247 59.0531M165.247 59.0531C167.056 58.4531 169.154 57.0996 169.488 54.4816C169.406 53.5793 168.683 51.8851 166.442 52.3262C164.992 52.7827 162.723 54.767 165.247 59.0531ZM165.247 59.0531C166.422 60.3908 169.897 63.0702 174.394 63.0857C176.381 63.0811 181.073 62.8726 183.941 62.0759M181.684 52.818C182.854 54.2179 187.365 57.2593 196.045 58.2255M196.045 59.0531C194.13 60.3255 189.918 64.397 188.386 70.5043" stroke="#EF3851" stroke-width="5.1" stroke-linecap="round"/>
</svg>
