<svg width="337" height="110" viewBox="0 0 337 110" fill="none" xmlns="http://www.w3.org/2000/svg">
<path d="M54.22 28.26C55.34 28.42 56.1 28.76 56.5 29.28C56.94 29.8 57.16 30.48 57.16 31.32C57.16 34.08 55.68 35.36 52.72 35.16L50.62 34.98C48.26 34.78 45.9 34.62 43.54 34.5C41.22 34.38 38.78 34.32 36.22 34.32H33.52C33.04 40.24 32.54 45.64 32.02 50.52L42.34 50.34C43.82 50.34 44.8 50.6 45.28 51.12C45.8 51.64 46.06 52.34 46.06 53.22C46.06 54.58 45.66 55.66 44.86 56.46C44.06 57.22 42.92 57.6 41.44 57.6H31.18L30.82 60.18C29.98 66.78 28.18 71.48 25.42 74.28C22.7 77.08 18.94 78.48 14.14 78.48C11.42 78.48 8.92 77.9 6.64 76.74C4.36 75.54 2.68 74.1 1.6 72.42C1.16 71.74 0.94 70.92 0.94 69.96C0.94 69 1.16 68.16 1.6 67.44C2.08 66.72 2.66 66.36 3.34 66.36C3.82 66.36 4.28 66.52 4.72 66.84C5.2 67.16 5.8 67.78 6.52 68.7C8.44 71.22 10.82 72.48 13.66 72.48C15.94 72.48 17.84 71.56 19.36 69.72C20.92 67.84 21.92 64.9 22.36 60.9L22.72 57.6H19.84C18.92 57.6 18.12 57.34 17.44 56.82C16.8 56.3 16.48 55.56 16.48 54.6C16.48 53.36 16.8 52.42 17.44 51.78C18.08 51.1 19.02 50.76 20.26 50.76C21.38 50.76 22.48 50.74 23.56 50.7C24.04 46.3 24.56 40.96 25.12 34.68C20.8 35.08 17.76 35.78 16 36.78C14.24 37.78 13.36 39.26 13.36 41.22C13.36 42.58 13.76 43.88 14.56 45.12C14.8 45.48 14.92 45.84 14.92 46.2C14.92 46.92 14.52 47.56 13.72 48.12C12.92 48.64 12.02 48.9 11.02 48.9C9.94 48.9 9.02 48.58 8.26 47.94C7.78 47.54 7.32 46.72 6.88 45.48C6.44 44.24 6.22 42.86 6.22 41.34C6.22 36.38 8.76 32.78 13.84 30.54C18.96 28.3 26.42 27.18 36.22 27.18C43.02 27.18 49.02 27.54 54.22 28.26ZM76.6089 59.58C77.1289 59.58 77.5289 59.84 77.8089 60.36C78.0889 60.88 78.2289 61.54 78.2289 62.34C78.2289 64.26 77.6489 65.4 76.4889 65.76C74.0889 66.6 71.4489 67.08 68.5689 67.2C67.8089 70.56 66.3089 73.26 64.0689 75.3C61.8289 77.3 59.2889 78.3 56.4489 78.3C54.0489 78.3 51.9889 77.72 50.2689 76.56C48.5889 75.4 47.3089 73.86 46.4289 71.94C45.5489 70.02 45.1089 67.94 45.1089 65.7C45.1089 62.66 45.6889 59.96 46.8489 57.6C48.0089 55.2 49.6089 53.34 51.6489 52.02C53.6889 50.66 55.9489 49.98 58.4289 49.98C61.4689 49.98 63.9089 51.04 65.7489 53.16C67.6289 55.24 68.7289 57.82 69.0489 60.9C70.9289 60.78 73.1689 60.38 75.7689 59.7C76.0889 59.62 76.3689 59.58 76.6089 59.58ZM56.9289 71.94C58.2089 71.94 59.3089 71.42 60.2289 70.38C61.1889 69.34 61.8289 67.84 62.1489 65.88C60.9089 65.04 59.9489 63.94 59.2689 62.58C58.6289 61.22 58.3089 59.78 58.3089 58.26C58.3089 57.62 58.3689 56.98 58.4889 56.34H58.1889C56.5889 56.34 55.2489 57.12 54.1689 58.68C53.1289 60.2 52.6089 62.36 52.6089 65.16C52.6089 67.36 53.0289 69.04 53.8689 70.2C54.7489 71.36 55.7689 71.94 56.9289 71.94ZM77.3392 78.3C75.8192 78.3 74.7392 77.5 74.0992 75.9C73.4992 74.3 73.1992 71.74 73.1992 68.22C73.1992 63.02 73.9392 58.08 75.4192 53.4C75.7792 52.24 76.3592 51.4 77.1592 50.88C77.9992 50.32 79.1592 50.04 80.6392 50.04C81.4392 50.04 81.9992 50.14 82.3192 50.34C82.6392 50.54 82.7992 50.92 82.7992 51.48C82.7992 52.12 82.4992 53.56 81.8992 55.8C81.4992 57.4 81.1792 58.8 80.9392 60C80.6992 61.2 80.4992 62.68 80.3392 64.44C81.6592 61 83.1392 58.2 84.7792 56.04C86.4192 53.88 88.0192 52.34 89.5792 51.42C91.1792 50.5 92.6392 50.04 93.9592 50.04C96.5592 50.04 97.8592 51.34 97.8592 53.94C97.8592 54.46 97.6792 55.72 97.3192 57.72C96.9992 59.32 96.8392 60.32 96.8392 60.72C96.8392 62.12 97.3392 62.82 98.3392 62.82C99.4592 62.82 100.899 61.94 102.659 60.18C103.179 59.66 103.719 59.4 104.279 59.4C104.799 59.4 105.199 59.64 105.479 60.12C105.799 60.56 105.959 61.16 105.959 61.92C105.959 63.4 105.559 64.56 104.759 65.4C103.639 66.56 102.319 67.56 100.799 68.4C99.3192 69.2 97.7392 69.6 96.0592 69.6C93.9392 69.6 92.3192 69.06 91.1992 67.98C90.1192 66.9 89.5792 65.44 89.5792 63.6C89.5792 63 89.6392 62.4 89.7592 61.8C89.8392 61 89.8792 60.46 89.8792 60.18C89.8792 59.54 89.6592 59.22 89.2192 59.22C88.6192 59.22 87.8192 59.9 86.8192 61.26C85.8592 62.58 84.8992 64.34 83.9392 66.54C82.9792 68.74 82.1992 71.06 81.5992 73.5C81.1592 75.38 80.6392 76.66 80.0392 77.34C79.4792 77.98 78.5792 78.3 77.3392 78.3ZM147.546 59.76C147.666 59.72 147.866 59.7 148.146 59.7C148.746 59.7 149.206 59.9 149.526 60.3C149.846 60.7 150.006 61.24 150.006 61.92C150.006 63.16 149.766 64.14 149.286 64.86C148.806 65.54 148.086 66.04 147.126 66.36C145.286 66.96 143.326 67.26 141.246 67.26C139.486 67.26 137.826 67.02 136.266 66.54C135.106 68.42 133.826 70.36 132.426 72.36C130.826 74.64 129.446 76.2 128.286 77.04C127.166 77.88 125.886 78.3 124.446 78.3C122.846 78.3 121.626 77.68 120.786 76.44C119.986 75.2 119.486 73.16 119.286 70.32L118.986 65.94C117.746 69.3 116.626 71.86 115.626 73.62C114.666 75.38 113.686 76.6 112.686 77.28C111.726 77.96 110.586 78.3 109.266 78.3C107.626 78.3 106.326 77.66 105.366 76.38C104.446 75.1 103.866 73.08 103.626 70.32C103.146 64.72 102.906 59.82 102.906 55.62V53.52C102.946 52.2 103.306 51.28 103.986 50.76C104.666 50.24 105.686 49.98 107.046 49.98C108.086 49.98 108.846 50.22 109.326 50.7C109.846 51.14 110.106 51.9 110.106 52.98C110.106 57.58 110.386 63.56 110.946 70.92C113.666 65.2 116.166 59.24 118.446 53.04C118.886 51.84 119.406 51.04 120.006 50.64C120.646 50.2 121.406 49.98 122.286 49.98C123.366 49.98 124.106 50.2 124.506 50.64C124.946 51.08 125.166 51.86 125.166 52.98C125.166 57.58 125.446 63.56 126.006 70.92C128.406 67.36 130.206 64.52 131.406 62.4C130.806 61.24 130.506 59.86 130.506 58.26C130.506 56.9 130.806 55.58 131.406 54.3C132.006 53.02 132.826 51.98 133.866 51.18C134.906 50.38 136.086 49.98 137.406 49.98C138.566 49.98 139.506 50.4 140.226 51.24C140.946 52.04 141.306 53.22 141.306 54.78C141.306 56.58 140.826 58.64 139.866 60.96C141.386 60.88 143.406 60.58 145.926 60.06L147.546 59.76ZM152.178 78.3C149.698 78.3 147.718 77.4 146.238 75.6C144.758 73.8 144.018 71.44 144.018 68.52C144.018 65.32 144.758 62.3 146.238 59.46C147.718 56.58 149.678 54.28 152.118 52.56C154.598 50.8 157.218 49.92 159.978 49.92C160.858 49.92 161.438 50.1 161.718 50.46C162.038 50.78 162.298 51.38 162.498 52.26C163.338 52.1 164.218 52.02 165.138 52.02C167.098 52.02 168.078 52.72 168.078 54.12C168.078 54.96 167.778 56.96 167.178 60.12C166.258 64.72 165.798 67.92 165.798 69.72C165.798 70.32 165.938 70.8 166.218 71.16C166.538 71.52 166.938 71.7 167.418 71.7C168.178 71.7 169.098 71.22 170.178 70.26C171.258 69.26 172.718 67.66 174.558 65.46C175.038 64.9 175.578 64.62 176.178 64.62C176.698 64.62 177.098 64.86 177.378 65.34C177.698 65.82 177.858 66.48 177.858 67.32C177.858 68.92 177.478 70.16 176.718 71.04C175.078 73.08 173.338 74.8 171.498 76.2C169.658 77.6 167.878 78.3 166.158 78.3C164.838 78.3 163.618 77.86 162.498 76.98C161.418 76.06 160.598 74.82 160.038 73.26C157.958 76.62 155.338 78.3 152.178 78.3ZM154.338 72.24C155.218 72.24 156.058 71.72 156.858 70.68C157.658 69.64 158.238 68.26 158.598 66.54L160.818 55.5C159.138 55.54 157.578 56.18 156.138 57.42C154.738 58.62 153.618 60.22 152.778 62.22C151.938 64.22 151.518 66.34 151.518 68.58C151.518 69.82 151.758 70.74 152.238 71.34C152.758 71.94 153.458 72.24 154.338 72.24ZM177.242 78.3C175.722 78.3 174.642 77.5 174.002 75.9C173.402 74.3 173.102 71.74 173.102 68.22C173.102 63.02 173.842 58.08 175.322 53.4C175.682 52.24 176.262 51.4 177.062 50.88C177.902 50.32 179.062 50.04 180.542 50.04C181.342 50.04 181.902 50.14 182.222 50.34C182.542 50.54 182.702 50.92 182.702 51.48C182.702 52.12 182.402 53.56 181.802 55.8C181.402 57.4 181.082 58.8 180.842 60C180.602 61.2 180.402 62.68 180.242 64.44C181.562 61 183.042 58.2 184.682 56.04C186.322 53.88 187.922 52.34 189.482 51.42C191.082 50.5 192.542 50.04 193.862 50.04C196.462 50.04 197.762 51.34 197.762 53.94C197.762 54.46 197.582 55.72 197.222 57.72C196.902 59.32 196.742 60.32 196.742 60.72C196.742 62.12 197.242 62.82 198.242 62.82C199.362 62.82 200.802 61.94 202.562 60.18C203.082 59.66 203.622 59.4 204.182 59.4C204.702 59.4 205.102 59.64 205.382 60.12C205.702 60.56 205.862 61.16 205.862 61.92C205.862 63.4 205.462 64.56 204.662 65.4C203.542 66.56 202.222 67.56 200.702 68.4C199.222 69.2 197.642 69.6 195.962 69.6C193.842 69.6 192.222 69.06 191.102 67.98C190.022 66.9 189.482 65.44 189.482 63.6C189.482 63 189.542 62.4 189.662 61.8C189.742 61 189.782 60.46 189.782 60.18C189.782 59.54 189.562 59.22 189.122 59.22C188.522 59.22 187.722 59.9 186.722 61.26C185.762 62.58 184.802 64.34 183.842 66.54C182.882 68.74 182.102 71.06 181.502 73.5C181.062 75.38 180.542 76.66 179.942 77.34C179.382 77.98 178.482 78.3 177.242 78.3ZM222.126 64.62C222.566 67.9 223.206 71.14 224.046 74.34C224.206 74.86 224.286 75.4 224.286 75.96C224.286 77.76 223.186 78.66 220.986 78.66C219.746 78.66 218.786 78.32 218.106 77.64C217.466 76.96 216.866 75.68 216.306 73.8L216.246 73.56C214.726 75.44 213.346 76.7 212.106 77.34C210.906 77.98 209.506 78.3 207.906 78.3C205.466 78.3 203.446 77.4 201.846 75.6C200.286 73.76 199.506 71.38 199.506 68.46C199.506 65.26 200.186 62.3 201.546 59.58C202.906 56.86 204.766 54.64 207.126 52.92C209.486 51.16 212.126 50.1 215.046 49.74C215.806 42.18 217.246 35.6 219.366 30C221.526 24.4 224.386 21.6 227.946 21.6C229.666 21.6 231.086 22.38 232.206 23.94C233.366 25.5 233.946 27.86 233.946 31.02C233.946 35.42 232.866 40.56 230.706 46.44C228.546 52.32 225.686 58.38 222.126 64.62ZM227.286 27.48C226.126 27.48 225.026 30.44 223.986 36.36C222.986 42.28 222.306 48.72 221.946 55.68C226.386 46.08 228.606 38.28 228.606 32.28C228.606 30.76 228.466 29.58 228.186 28.74C227.946 27.9 227.646 27.48 227.286 27.48ZM210.006 72.24C210.806 72.24 211.566 71.94 212.286 71.34C213.046 70.74 214.006 69.58 215.166 67.86C214.766 64.94 214.566 61.92 214.566 58.8C214.566 57.56 214.586 56.6 214.626 55.92C212.426 56.56 210.606 58.02 209.166 60.3C207.726 62.58 207.006 65.1 207.006 67.86C207.006 70.78 208.006 72.24 210.006 72.24Z" fill="#6A1BCD"/>
<path d="M220.466 73.8693C221.361 78.7829 228.104 89.4551 244.99 88.3986C245.746 88.3302 246.717 88.1439 247.747 87.8009M247.747 87.8009C250.581 86.8578 253.868 84.7302 254.392 80.6149C254.264 79.1967 253.13 76.5336 249.62 77.227C247.349 77.9444 243.793 81.0636 247.747 87.8009ZM247.747 87.8009C249.588 89.9037 255.032 94.1153 262.079 94.1398C265.192 94.1325 272.543 93.8048 277.036 92.5525M273.5 78C275.333 80.2005 282.4 84.9812 296 86.5M296 87.8009C293 89.8009 286.4 96.2009 284 105.801" stroke="#6A1BCD" stroke-width="6.8" stroke-linecap="round"/>
</svg>
